<svg width="758" height="286" viewBox="0 0 758 286" fill="none" xmlns="http://www.w3.org/2000/svg">
<g clip-path="url(#clip0)">
<rect width="758" height="286" fill="white"/>
<path d="M180.211 172.867H209.117V223.648H180.211V284H114.391V223.648H4.42969L0.523438 183.414L114.391 0.210938V-0.375H180.211V172.867ZM63.2188 172.867H114.391V85.3672L110.289 92.0078L63.2188 172.867Z" fill="black" fill-opacity="0.4"/>
<path d="M732.211 172.867H761.117V223.648H732.211V284H666.391V223.648H556.43L552.523 183.414L666.391 0.210938V-0.375H732.211V172.867ZM615.219 172.867H666.391V85.3672L662.289 92.0078L615.219 172.867Z" fill="black" fill-opacity="0.4"/>
<circle cx="381" cy="143" r="143" fill="black" fill-opacity="0.4"/>
<circle cx="381.5" cy="143.5" r="110.5" stroke="white" stroke-width="4"/>
<path d="M369.444 124.35H359.333L356.333 89H352.222L349.222 124.35H339.111L336.111 89H332L329 124.35C329 135.056 337.392 143.742 347.958 144.399V212H360.597V144.399C371.163 143.742 379.556 135.056 379.556 124.35L376.556 89H372.444L369.444 124.35ZM394.722 109.2V149.6H407.361V212H420V89C406.047 89 394.722 100.312 394.722 109.2Z" fill="white"/>
</g>
<defs>
<clipPath id="clip0">
<rect width="758" height="286" fill="white"/>
</clipPath>
</defs>
</svg>
