<svg width="768" height="301" viewBox="0 0 768 301" fill="none" xmlns="http://www.w3.org/2000/svg">
<g clip-path="url(#clip0)">
<path d="M180.391 176.867H209.297V227.648H180.391V288H114.57V227.648H4.60938L0.703125 187.414L114.57 4.21094V3.625H180.391V176.867ZM63.3984 176.867H114.57V89.3672L110.469 96.0078L63.3984 176.867Z" fill="#EF5362"/>
<g clip-path="url(#clip1)">
<path d="M386.305 296.945C467.076 296.945 532.555 231.467 532.555 150.695C532.555 69.9237 467.076 4.44531 386.305 4.44531C305.533 4.44531 240.055 69.9237 240.055 150.695C240.055 231.467 305.533 296.945 386.305 296.945Z" fill="#9398AA"/>
<g opacity="0.3">
<g opacity="0.3">
<g opacity="0.3">
<path opacity="0.3" d="M285.443 256.727C285.443 256.727 201.257 147.503 292.369 57.5523C382.078 -31.0118 490.849 51.3209 490.849 51.3209C490.849 51.3209 394.979 -50.7616 281.591 47.5379C281.591 47.5379 183.453 144.834 285.443 256.727Z" fill="#3F456B"/>
</g>
</g>
</g>
<g opacity="0.2">
<g opacity="0.2">
<g opacity="0.2">
<path opacity="0.2" d="M485.494 45.9474C485.494 45.9474 569.68 155.172 478.568 245.122C388.86 333.686 280.089 251.353 280.089 251.353C280.089 251.353 375.958 353.436 489.346 255.136C489.347 255.136 587.484 157.84 485.494 45.9474Z" fill="white"/>
</g>
</g>
</g>
<path d="M386.305 299.992C346.426 299.992 308.934 284.463 280.736 256.264C252.537 228.066 237.008 190.574 237.008 150.695C237.008 110.817 252.537 73.3248 280.736 45.1266C308.934 16.9278 346.426 1.39844 386.305 1.39844C426.183 1.39844 463.675 16.9278 491.873 45.1266C520.072 73.3248 535.602 110.817 535.602 150.695C535.602 190.574 520.072 228.066 491.873 256.264C463.675 284.463 426.183 299.992 386.305 299.992ZM386.305 7.49219C348.054 7.49219 312.092 22.3878 285.045 49.4355C257.997 76.4826 243.102 112.444 243.102 150.695C243.102 188.946 257.997 224.908 285.045 251.955C312.093 279.002 348.054 293.898 386.305 293.898C424.556 293.898 460.517 279.003 487.565 251.955C514.612 224.907 529.508 188.946 529.508 150.695C529.508 112.444 514.612 76.4826 487.565 49.4355C460.517 22.3878 424.556 7.49219 386.305 7.49219Z" fill="#3F456B"/>
<g opacity="0.8">
<g opacity="0.8">
<g opacity="0.8">
<path opacity="0.8" d="M461.241 226.109C502.856 184.494 502.856 117.023 461.241 75.4084C419.626 33.7934 352.155 33.7934 310.54 75.4084C268.926 117.023 268.926 184.494 310.54 226.109C352.155 267.724 419.626 267.724 461.241 226.109Z" fill="white"/>
</g>
</g>
</g>
<g opacity="0.3">
<g opacity="0.3">
<g opacity="0.3">
<path opacity="0.3" d="M487.472 253.098C536.609 203.961 536.609 124.293 487.472 75.1554C438.334 26.0179 358.667 26.0179 309.529 75.1554C260.392 124.293 260.392 203.961 309.529 253.098C358.667 302.236 438.334 302.236 487.472 253.098Z" fill="#3F456B"/>
</g>
</g>
</g>
<path d="M474.862 240.488C523.999 191.351 523.999 111.683 474.862 62.5457C425.724 13.4082 346.057 13.4082 296.919 62.5457C247.782 111.683 247.782 191.351 296.919 240.488C346.057 289.626 425.724 289.626 474.862 240.488Z" fill="#F4BC84"/>
<g opacity="0.2">
<g opacity="0.2">
<g opacity="0.2">
<path opacity="0.2" d="M332.048 159.67C361.622 159.67 385.597 135.696 385.597 106.121C385.597 76.5471 361.622 52.5725 332.048 52.5725C302.474 52.5725 278.499 76.5471 278.499 106.121C278.499 135.696 302.474 159.67 332.048 159.67Z" fill="white"/>
</g>
</g>
</g>
<g opacity="0.2">
<g opacity="0.2">
<g opacity="0.2">
<path opacity="0.2" d="M288.802 226.963C288.802 226.963 233.625 143.566 306.035 71.156C378.446 -1.25421 455.053 48.8181 455.053 48.8181C455.053 48.8181 369.258 -9.46675 297.12 62.6711C224.982 134.809 288.802 226.963 288.802 226.963Z" fill="white"/>
</g>
</g>
</g>
<g opacity="0.1">
<g opacity="0.1">
<g opacity="0.1">
<path opacity="0.1" d="M482.274 72.1761C482.274 72.1761 538.675 157.422 464.659 231.437C390.644 305.452 312.339 254.27 312.339 254.27C312.339 254.27 400.035 313.846 473.771 240.11C547.508 166.373 482.274 72.1761 482.274 72.1761Z" fill="#3F456B"/>
</g>
</g>
</g>
<path d="M505.362 66.8087C504.259 66.8087 503.195 66.2085 502.653 65.161C501.88 63.6662 502.465 61.8283 503.96 61.055L524.66 50.3483C524.726 50.3142 524.792 50.2831 524.86 50.2538C525.8 49.8376 527.861 48.4946 528.132 47.0437C528.39 45.6616 526.936 43.9633 526.047 43.0742L491.577 8.60429C490.688 7.71521 488.989 6.26063 487.607 6.51901C486.157 6.78957 484.814 8.85109 484.39 9.8072C484.365 9.86326 484.331 9.93638 484.303 9.99062L473.596 30.6911C472.823 32.1871 470.984 32.7709 469.49 31.9976C467.995 31.2243 467.41 29.3864 468.183 27.8916L478.847 7.27402C479.289 6.29537 481.691 1.45267 486.443 0.537386C489.604 -0.072598 492.783 1.19246 495.886 4.2954L530.356 38.7653C533.458 41.8682 534.722 45.0449 534.114 48.2076C533.199 52.9595 528.356 55.3628 527.377 55.8034L506.759 66.4675C506.312 66.699 505.833 66.8087 505.362 66.8087Z" fill="#3F456B"/>
<path d="M283.195 297.729C280.545 297.729 277.896 296.42 275.299 293.822L240.829 259.352C237.726 256.25 236.461 253.073 237.071 249.91C237.986 245.159 242.829 242.755 243.807 242.314L264.424 231.65C265.92 230.877 267.757 231.461 268.53 232.957C269.303 234.452 268.718 236.29 267.224 237.063L246.524 247.77C246.459 247.804 246.392 247.835 246.324 247.865C245.384 248.281 243.322 249.624 243.052 251.074C242.794 252.456 244.247 254.155 245.137 255.044L279.607 289.514C280.697 290.604 282.272 291.85 283.588 291.597C285.198 291.287 286.54 288.901 286.786 288.326C286.815 288.259 286.847 288.192 286.881 288.127L297.588 267.427C298.362 265.932 300.199 265.347 301.694 266.12C303.189 266.893 303.774 268.731 303.001 270.226L292.337 290.843C291.896 291.822 289.493 296.664 284.741 297.58C284.226 297.68 283.711 297.729 283.195 297.729Z" fill="#3F456B"/>
<g opacity="0.3">
<g opacity="0.3">
<g opacity="0.3">
<g opacity="0.3">
<path opacity="0.3" d="M410.97 55.6169C410.744 55.6169 410.515 55.592 410.286 55.5396C408.646 55.1636 407.621 53.5292 407.997 51.8888C408.154 51.1484 408.341 48.8297 407.274 47.2819C406.566 46.2539 405.357 45.6202 403.581 45.3447C401.805 45.0693 400.462 45.3069 399.474 46.0711C397.988 47.2228 397.464 49.4885 397.387 50.2642C397.222 51.929 395.747 53.1606 394.078 53.0113C392.412 52.8595 391.178 51.4056 391.316 49.7377C391.362 49.1905 391.869 44.3027 395.681 41.3015C397.302 40.0243 400.151 38.644 404.516 39.3223C408.88 39.9999 411.177 42.1784 412.335 43.8865C415.057 47.9023 414.059 52.7139 413.936 53.2495C413.613 54.6614 412.358 55.6169 410.97 55.6169Z" fill="#3F456B"/>
</g>
</g>
</g>
<g opacity="0.3">
<g opacity="0.3">
<g opacity="0.3">
<path opacity="0.3" d="M480.225 176.017C478.579 176.017 477.224 174.705 477.18 173.05C477.136 171.368 478.464 169.968 480.146 169.924C480.902 169.892 483.194 169.496 484.427 168.077C485.246 167.135 485.56 165.807 485.385 164.018C485.208 162.216 484.636 160.968 483.635 160.203C481.857 158.845 479.127 159.236 479.1 159.24C477.44 159.526 475.867 158.408 475.584 156.749C475.302 155.09 476.417 153.516 478.075 153.233C478.617 153.141 483.477 152.416 487.332 155.36C488.973 156.612 491.018 159.029 491.449 163.424C491.88 167.819 490.341 170.586 488.975 172.133C485.763 175.769 480.855 176.001 480.305 176.015C480.279 176.017 480.252 176.017 480.225 176.017Z" fill="#3F456B"/>
</g>
</g>
</g>
<g opacity="0.3">
<g opacity="0.3">
<g opacity="0.3">
<path opacity="0.3" d="M442.906 105.783C442.386 105.783 441.859 105.649 441.377 105.369C439.922 104.522 439.429 102.657 440.276 101.203C440.646 100.543 441.513 98.3848 440.955 96.5895C440.583 95.397 439.618 94.4329 438.004 93.642C436.39 92.851 435.038 92.6792 433.867 93.1155C432.105 93.7736 430.932 95.7815 430.628 96.4993C429.976 98.0405 428.199 98.7796 426.652 98.1392C425.106 97.4993 424.36 95.7437 424.988 94.1929C425.194 93.6834 427.132 89.1673 431.663 87.4343C433.59 86.6975 436.72 86.2265 440.686 88.1704C444.652 90.1143 446.198 92.8772 446.796 94.8522C448.202 99.4956 445.819 103.794 445.543 104.268C444.977 105.24 443.956 105.783 442.906 105.783Z" fill="#3F456B"/>
</g>
</g>
</g>
<g opacity="0.3">
<g opacity="0.3">
<g opacity="0.3">
<path opacity="0.3" d="M479.609 122.429C478.397 122.429 477.251 121.701 476.776 120.507C476.155 118.943 476.919 117.172 478.483 116.55C479.182 116.26 481.197 115.098 481.866 113.341C482.31 112.174 482.146 110.82 481.365 109.201C480.584 107.582 479.626 106.611 478.436 106.232C476.645 105.662 474.481 106.516 473.799 106.893C472.334 107.701 470.481 107.185 469.659 105.727C468.838 104.269 469.336 102.428 470.787 101.595C471.264 101.322 475.577 98.9673 480.211 100.401C482.182 101.012 484.935 102.574 486.854 106.553C488.773 110.531 488.283 113.658 487.533 115.581C485.771 120.101 481.244 122.01 480.733 122.213C480.364 122.36 479.983 122.429 479.609 122.429Z" fill="#3F456B"/>
</g>
</g>
</g>
<g opacity="0.3">
<g opacity="0.3">
<g opacity="0.3">
<g opacity="0.3">
<path opacity="0.3" d="M440.202 235.658C439.936 235.658 439.683 235.647 439.444 235.628C434.608 235.242 431.476 231.455 431.135 231.024C430.09 229.706 430.312 227.789 431.631 226.744C432.95 225.698 434.866 225.92 435.911 227.24C436.391 227.825 438.083 229.421 439.958 229.556C441.2 229.645 442.453 229.099 443.78 227.885C445.115 226.662 445.77 225.455 445.78 224.196C445.799 221.957 443.849 220.009 443.828 219.99C442.607 218.833 442.554 216.905 443.711 215.683C444.867 214.462 446.795 214.408 448.019 215.565C448.417 215.943 451.914 219.396 451.874 224.247C451.857 226.31 451.153 229.397 447.895 232.379C445.016 235.016 442.231 235.658 440.202 235.658Z" fill="#3F456B"/>
</g>
</g>
</g>
<g opacity="0.3">
<g opacity="0.3">
<g opacity="0.3">
<path opacity="0.3" d="M425.173 244.971C423.569 244.971 422.254 244.607 421.268 244.184C416.808 242.274 415.05 237.685 414.864 237.168C414.295 235.584 415.118 233.84 416.702 233.271C418.284 232.703 420.03 233.523 420.599 235.108C420.866 235.816 421.96 237.868 423.694 238.595C424.845 239.078 426.205 238.959 427.849 238.232C429.505 237.5 430.511 236.565 430.923 235.375C431.656 233.26 430.43 230.791 430.417 230.767C429.629 229.28 430.194 227.436 431.681 226.648C433.168 225.861 435.012 226.425 435.801 227.912C436.058 228.397 438.269 232.786 436.681 237.37C436.006 239.32 434.353 242.02 430.313 243.806C428.376 244.662 426.651 244.971 425.173 244.971Z" fill="#3F456B"/>
</g>
</g>
</g>
</g>
<g opacity="0.3">
<g opacity="0.3">
<g opacity="0.3">
<path opacity="0.3" d="M342.06 256.498C340.258 256.498 338.033 256.009 335.566 254.418C331.855 252.025 330.643 249.1 330.279 247.069C329.426 242.293 332.294 238.303 332.624 237.864C333.635 236.519 335.544 236.247 336.89 237.257C338.235 238.267 338.507 240.177 337.497 241.523C337.052 242.135 335.938 244.177 336.284 246.025C336.513 247.252 337.358 248.323 338.869 249.297C340.391 250.278 341.725 250.605 342.945 250.296C345.115 249.746 346.505 247.365 346.517 247.342C347.327 245.866 349.18 245.326 350.654 246.135C352.129 246.944 352.67 248.796 351.86 250.271C351.596 250.753 349.144 255.012 344.442 256.204C343.771 256.373 342.969 256.498 342.06 256.498Z" fill="#3F456B"/>
</g>
</g>
</g>
<g opacity="0.3">
<g opacity="0.3">
<g opacity="0.3">
<path opacity="0.3" d="M291.324 165.693C289.483 165.693 286.229 165.332 283.562 163.122C281.973 161.805 280.025 159.311 279.769 154.901C279.514 150.492 281.16 147.789 282.587 146.297C285.939 142.792 290.845 142.755 291.403 142.761C293.086 142.784 294.432 144.166 294.409 145.848C294.387 147.531 292.998 148.879 291.322 148.854C290.565 148.856 288.259 149.161 286.97 150.53C286.115 151.439 285.749 152.754 285.853 154.548C285.958 156.356 286.481 157.626 287.451 158.43C289.175 159.857 291.917 159.576 291.944 159.572C293.612 159.358 295.141 160.532 295.358 162.201C295.574 163.87 294.398 165.398 292.729 165.615C292.572 165.635 292.061 165.693 291.324 165.693Z" fill="#3F456B"/>
</g>
</g>
</g>
<g opacity="0.3">
<g opacity="0.3">
<g opacity="0.3">
<path opacity="0.3" d="M337.948 62.083C336.769 62.083 335.651 61.3969 335.158 60.2446C334.942 59.7394 333.102 55.1831 335.064 50.7462C335.899 48.859 337.77 46.3057 341.944 44.8609C346.117 43.4154 349.168 44.2649 350.99 45.2326C355.276 47.5062 356.648 52.2252 356.79 52.7559C357.226 54.3812 356.262 56.0521 354.636 56.4884C353.009 56.9222 351.339 55.9594 350.904 54.3342C350.696 53.6066 349.776 51.4702 348.108 50.6024C347.001 50.0266 345.637 50.0314 343.938 50.6195C342.24 51.2075 341.164 52.0466 340.65 53.1843C339.876 54.8979 340.474 57.1453 340.769 57.8668C341.403 59.4152 340.675 61.197 339.132 61.8436C338.744 62.0057 338.342 62.083 337.948 62.083Z" fill="#3F456B"/>
</g>
</g>
</g>
<g opacity="0.3">
<g opacity="0.3">
<g opacity="0.3">
<path opacity="0.3" d="M386.23 124.621C384.715 124.621 383.402 123.493 383.21 121.951C383.142 121.406 382.636 116.518 385.751 112.798C387.076 111.216 389.581 109.281 393.991 109.048C398.397 108.815 401.096 110.477 402.58 111.911C406.069 115.282 406.08 120.197 406.07 120.746C406.038 122.428 404.664 123.762 402.967 123.735C401.284 123.704 399.946 122.315 399.977 120.632C399.979 119.876 399.687 117.568 398.325 116.272C397.42 115.411 396.108 115.04 394.312 115.134C392.504 115.229 391.231 115.745 390.423 116.71C388.987 118.427 389.254 121.17 389.257 121.198C389.466 122.868 388.28 124.39 386.611 124.598C386.483 124.613 386.355 124.621 386.23 124.621Z" fill="#3F456B"/>
</g>
</g>
</g>
</g>
<path d="M385.893 280.283C314.891 280.283 257.128 222.519 257.128 151.517C257.128 80.5148 314.891 22.7515 385.893 22.7515C456.895 22.7515 514.659 80.5154 514.659 151.517C514.659 222.519 456.895 280.283 385.893 280.283ZM385.893 28.8453C318.252 28.8453 263.221 83.8755 263.221 151.517C263.221 219.159 318.252 274.189 385.893 274.189C453.534 274.189 508.565 219.159 508.565 151.517C508.565 83.8761 453.535 28.8453 385.893 28.8453Z" fill="#3F456B"/>
<g opacity="0.2">
<g opacity="0.2">
<g opacity="0.2">
<path opacity="0.2" d="M272.705 166.008C283.089 129.927 310.157 113.297 337.25 128.251V128.257C349.291 131.579 352.222 130.634 364.812 128.928C381.942 126.612 383.343 152.115 366.201 153.211C349.066 154.314 332.217 138.855 332.217 138.855C332.217 138.855 313.033 130.512 307.177 156.027C302.686 175.618 335.294 186.617 335.294 186.617C335.294 186.617 371.338 196.757 378.34 220.882C382.953 236.775 375.305 250.364 375.305 250.364L304.52 218.78C304.52 218.78 262.321 202.089 272.705 166.008Z" fill="#3F456B"/>
</g>
</g>
</g>
<path d="M375.306 236.957L304.518 205.372C304.518 205.372 262.321 188.686 272.705 152.605C283.089 116.525 310.158 99.8923 337.247 114.849L332.214 125.45C332.214 125.45 313.03 117.108 307.179 142.624C302.686 162.211 335.296 173.212 335.296 173.212C335.296 173.212 371.337 183.35 378.34 207.478C382.953 223.369 375.306 236.957 375.306 236.957Z" fill="#FC9359"/>
<path d="M332.214 125.449C332.214 125.449 349.065 140.906 366.203 139.808C383.341 138.71 381.94 113.205 364.811 115.523C352.222 117.227 349.289 118.173 337.248 114.849" fill="#FC9359"/>
<g opacity="0.3">
<g opacity="0.3">
<g opacity="0.3">
<path opacity="0.3" d="M379.389 223.915C379.389 223.915 381.033 200.405 343.95 183.207C343.95 183.207 303.939 172.084 300.082 150.051C296.226 128.019 319.479 122.395 324.726 124.153C324.726 124.153 310.899 124.061 307.032 143.34C303.166 162.619 335.297 173.211 335.297 173.211C335.297 173.211 381.997 184.576 379.389 223.915Z" fill="#3F456B"/>
</g>
</g>
</g>
<g opacity="0.3">
<g opacity="0.3">
<g opacity="0.3">
<path opacity="0.3" d="M335.66 118.401C335.66 118.401 347.996 125.471 362.094 122.701C362.094 122.701 376.468 119.826 377.723 129.186C377.723 129.186 381.691 115.422 366.764 115.279C351.837 115.136 346.874 118.438 337.863 114.802L335.66 118.401Z" fill="#3F456B"/>
</g>
</g>
</g>
<g opacity="0.3">
<g opacity="0.3">
<g opacity="0.3">
<path opacity="0.3" d="M378.262 230.718L316.566 203.19C316.566 203.19 264.341 184.987 275.046 146.085C275.046 146.085 258.928 181.098 298.105 202.49L373.788 236.259L378.262 230.718Z" fill="white"/>
</g>
</g>
</g>
<g opacity="0.3">
<g opacity="0.3">
<g opacity="0.3">
<path opacity="0.3" d="M334.645 120.673C334.645 120.673 348.911 132.773 362.64 133.164C376.368 133.554 379.106 126.083 379.106 126.083C379.106 126.083 380.382 137.486 365.342 138.194C350.301 138.902 333.63 124.044 333.63 124.044L334.645 120.673Z" fill="white"/>
</g>
</g>
</g>
<path d="M364.438 142.911C346.951 142.911 330.856 128.337 330.154 127.695C328.914 126.557 328.831 124.629 329.969 123.39C331.106 122.151 333.032 122.066 334.272 123.202C334.432 123.348 350.398 137.768 366.008 136.768C369.939 136.516 372.917 134.634 374.392 131.468C375.903 128.227 375.579 124.232 373.588 121.528C371.785 119.078 368.893 118.047 365.22 118.543C364.008 118.707 362.885 118.864 361.836 119.011C351.71 120.427 347.922 120.956 336.436 117.787C334.814 117.339 333.862 115.661 334.31 114.039C334.757 112.417 336.434 111.464 338.057 111.913C348.328 114.748 351.264 114.336 360.991 112.976C362.049 112.828 363.18 112.67 364.402 112.505C370.245 111.715 375.381 113.686 378.494 117.915C381.818 122.431 382.376 128.761 379.915 134.043C377.491 139.245 372.564 142.455 366.397 142.85C365.743 142.891 365.089 142.911 364.438 142.911Z" fill="#3F456B"/>
<path d="M319.727 215.198C318.154 215.198 316.823 213.997 316.696 212.404C316.639 211.696 315.527 194.804 334.465 171.943C335.538 170.647 337.459 170.466 338.755 171.54C340.051 172.614 340.231 174.535 339.157 175.83C330.149 186.705 326.173 195.955 324.424 201.801C322.54 208.102 322.769 211.899 322.771 211.937C322.884 213.608 321.627 215.067 319.956 215.19C319.88 215.196 319.803 215.198 319.727 215.198Z" fill="#3F456B"/>
<g opacity="0.3">
<g opacity="0.3">
<g opacity="0.3">
<g opacity="0.3">
<path opacity="0.3" d="M311.269 134.753C310.379 134.753 309.497 134.365 308.895 133.619C308.784 133.482 302.037 125.322 291.243 122.431C289.618 121.996 288.653 120.325 289.088 118.7C289.523 117.075 291.193 116.11 292.819 116.545C305.632 119.976 313.32 129.398 313.641 129.797C314.695 131.109 314.487 133.027 313.175 134.081C312.613 134.534 311.938 134.753 311.269 134.753Z" fill="white"/>
</g>
</g>
</g>
<g opacity="0.3">
<g opacity="0.3">
<g opacity="0.3">
<path opacity="0.3" d="M306.857 146.311C306.443 146.311 306.022 146.225 305.619 146.046C305.425 145.96 291.894 140.082 277.996 142.911C276.348 143.245 274.738 142.182 274.403 140.533C274.067 138.884 275.132 137.275 276.78 136.939C292.67 133.704 307.48 140.203 308.102 140.481C309.639 141.167 310.327 142.969 309.641 144.506C309.135 145.639 308.023 146.311 306.857 146.311Z" fill="white"/>
</g>
</g>
</g>
<g opacity="0.3">
<g opacity="0.3">
<g opacity="0.3">
<path opacity="0.3" d="M271.503 172.371C270.662 172.371 269.825 172.025 269.223 171.347C268.106 170.089 268.221 168.163 269.479 167.045C288.783 149.908 309.911 153.386 310.801 153.544C312.458 153.835 313.565 155.414 313.274 157.072C312.983 158.727 311.409 159.832 309.753 159.546C309.509 159.504 290.527 156.51 273.525 171.602C272.944 172.118 272.222 172.371 271.503 172.371Z" fill="white"/>
</g>
</g>
</g>
<g opacity="0.3">
<g opacity="0.3">
<g opacity="0.3">
<path opacity="0.3" d="M291.697 201.223C291.41 201.223 291.118 201.182 290.83 201.096C289.218 200.617 288.298 198.925 288.774 197.313C289.068 196.32 296.205 172.853 316.729 161.624C318.206 160.816 320.057 161.359 320.865 162.835C321.673 164.311 321.13 166.162 319.654 166.97C301.377 176.969 294.683 198.824 294.618 199.044C294.223 200.367 293.011 201.223 291.697 201.223Z" fill="white"/>
</g>
</g>
</g>
</g>
<path d="M375.304 240.005C374.888 240.005 374.466 239.919 374.064 239.74L303.33 208.179C302.31 207.768 291.915 203.452 282.632 194.741C269.639 182.548 265.194 167.687 269.777 151.763C275.87 130.594 287.489 115.51 302.494 109.288C314.071 104.488 326.598 105.489 338.719 112.182C340.129 112.96 340.69 114.701 339.999 116.155L334.966 126.756C334.262 128.241 332.505 128.899 330.999 128.243C330.952 128.224 324.875 125.713 319.328 128.548C314.972 130.775 311.884 135.739 310.149 143.304C306.408 159.615 334.714 169.78 336.212 170.304C337.256 170.605 346.013 173.21 355.684 178.64C369.329 186.302 378.176 195.98 381.266 206.629C386.179 223.555 378.298 237.852 377.961 238.453C377.405 239.439 376.374 240.005 375.304 240.005ZM317.294 112.414C313.041 112.414 308.859 113.246 304.828 114.917C291.763 120.334 281.121 134.378 275.632 153.448C271.668 167.223 275.426 179.622 286.802 190.297C295.528 198.486 305.538 202.499 305.638 202.538C305.678 202.555 305.719 202.572 305.759 202.59L373.8 232.949C375.58 228.55 378.49 218.922 375.414 208.327C368.958 186.081 334.815 176.241 334.471 176.144C334.421 176.13 334.371 176.115 334.323 176.098C332.884 175.613 299.159 163.963 304.209 141.942C306.375 132.497 310.556 126.151 316.633 123.082C321.98 120.382 327.407 120.983 330.596 121.754L333.228 116.209C327.909 113.682 322.548 112.414 317.294 112.414Z" fill="#3F456B"/>
<path d="M343.019 201.421C345.009 202.309 345.902 204.64 345.014 206.63C344.127 208.619 341.795 209.512 339.805 208.624C337.816 207.737 336.923 205.404 337.81 203.415C338.697 201.426 341.029 200.534 343.019 201.421Z" fill="#3F456B"/>
<path d="M324.515 95.729L320.978 84.8413C319.943 81.6537 321.704 78.1985 324.892 77.1632L335.597 73.6861C337.838 72.9585 340.244 74.1852 340.972 76.4253L344.508 87.313C345.544 90.5006 343.783 93.9558 340.595 94.9911L329.889 98.4682C327.649 99.1964 325.242 97.9697 324.515 95.729Z" fill="#EF5362"/>
<path d="M328.564 101.728C327.426 101.728 326.295 101.458 325.251 100.926C323.511 100.04 322.22 98.5279 321.617 96.6705L318.081 85.7822C316.524 80.9883 319.158 75.822 323.951 74.2656L334.656 70.7885C338.491 69.5442 342.625 71.6502 343.87 75.4844L347.406 86.3727C348.963 91.1667 346.33 96.3336 341.536 97.8899L330.831 101.367C330.087 101.608 329.324 101.728 328.564 101.728ZM336.914 76.5246C336.789 76.5246 336.663 76.5441 336.538 76.5843L325.833 80.0614C324.236 80.5806 323.357 82.3027 323.877 83.9005L327.413 94.7888C327.549 95.2062 327.85 95.4122 328.019 95.4981C328.187 95.5834 328.53 95.7059 328.948 95.5712L339.654 92.0941C341.252 91.5749 342.129 89.8528 341.611 88.2551L338.074 77.3674C337.908 76.8524 337.428 76.5246 336.914 76.5246Z" fill="#3F456B"/>
<path d="M396.402 200.885L400.719 190.282C401.983 187.178 405.557 185.672 408.661 186.936L419.086 191.18C421.268 192.069 422.317 194.558 421.428 196.74L417.112 207.342C415.848 210.446 412.274 211.952 409.17 210.688L398.744 206.444C396.563 205.556 395.514 203.066 396.402 200.885Z" fill="#EF5362"/>
<path d="M411.456 214.185C410.31 214.185 409.146 213.968 408.021 213.51L397.596 209.266C393.862 207.746 392.06 203.47 393.58 199.736L397.897 189.133C398.815 186.878 400.562 185.113 402.816 184.163C405.07 183.213 407.554 183.196 409.81 184.114L420.234 188.358C423.968 189.879 425.77 194.153 424.249 197.888L419.932 208.491C418.491 212.034 415.065 214.185 411.456 214.185ZM399.225 202.033C398.971 202.655 399.272 203.368 399.894 203.621L410.318 207.866C411.875 208.499 413.656 207.749 414.29 206.192L418.606 195.59C418.86 194.968 418.56 194.255 417.937 194.002L407.512 189.757C406.764 189.453 405.936 189.461 405.183 189.778C404.429 190.096 403.846 190.682 403.542 191.43L399.225 202.033Z" fill="#3F456B"/>
<path d="M368.329 263.001L369.309 251.595C369.596 248.256 372.563 245.758 375.902 246.045L387.117 247.008C389.464 247.21 391.203 249.276 391.002 251.623L390.022 263.029C389.735 266.368 386.768 268.865 383.429 268.579L372.214 267.616C369.867 267.414 368.128 265.348 368.329 263.001Z" fill="#EF5362"/>
<path d="M383.957 271.648C383.696 271.648 383.433 271.637 383.168 271.614L371.953 270.651C367.936 270.306 364.948 266.757 365.293 262.74L366.273 251.334C366.482 248.908 367.627 246.705 369.498 245.129C371.369 243.553 373.738 242.798 376.162 243.009L387.377 243.972C389.323 244.139 391.088 245.054 392.346 246.549C393.604 248.043 394.205 249.938 394.037 251.884L393.057 263.29C392.649 268.046 388.647 271.648 383.957 271.648ZM371.365 263.261C371.307 263.931 371.805 264.522 372.475 264.58L383.689 265.544C385.368 265.689 386.842 264.442 386.986 262.768L387.966 251.363C388.004 250.925 387.805 250.618 387.684 250.474C387.562 250.33 387.293 250.082 386.856 250.044L375.641 249.08C374.837 249.012 374.049 249.264 373.422 249.791C372.796 250.318 372.413 251.051 372.344 251.855L371.365 263.261Z" fill="#3F456B"/>
<path d="M410.866 128.38L413.556 117.253C414.344 113.995 417.653 111.974 420.911 112.762L431.852 115.407C434.142 115.961 435.549 118.266 434.996 120.556L432.305 131.683C431.517 134.941 428.208 136.961 424.95 136.174L414.009 133.529C411.72 132.975 410.312 130.67 410.866 128.38Z" fill="#EF5362"/>
<path d="M426.382 139.393C425.673 139.393 424.953 139.309 424.235 139.135L413.293 136.49C411.395 136.031 409.789 134.86 408.771 133.193C407.753 131.526 407.446 129.563 407.905 127.664L410.595 116.537C411.167 114.171 412.632 112.165 414.72 110.89C416.808 109.615 419.261 109.229 421.627 109.801L432.568 112.446C436.487 113.394 438.905 117.353 437.957 121.272L435.267 132.4C434.256 136.579 430.504 139.393 426.382 139.393ZM419.486 115.639C418.932 115.639 418.385 115.792 417.896 116.091C417.198 116.517 416.708 117.184 416.518 117.969L413.828 129.097C413.725 129.523 413.874 129.857 413.972 130.018C414.071 130.179 414.299 130.464 414.726 130.568L425.667 133.213C427.298 133.607 428.949 132.601 429.344 130.967L432.035 119.84C432.192 119.188 431.79 118.527 431.136 118.369L420.195 115.724C419.96 115.667 419.722 115.639 419.486 115.639ZM410.866 128.38H410.872H410.866Z" fill="#3F456B"/>
<g opacity="0.2">
<g opacity="0.2">
<g opacity="0.2">
<path opacity="0.2" d="M490.898 125.757C488.45 163.223 465.552 185.244 435.893 176.413L435.891 176.407C423.419 175.731 420.757 177.279 408.82 181.631C392.579 187.548 385.77 162.931 402.283 158.203C418.789 153.47 438.548 164.98 438.548 164.98C438.548 164.98 459.07 169.039 459.348 142.862C459.557 122.764 425.353 118.973 425.353 118.973C425.353 118.973 387.976 116.755 375.989 94.6785C368.092 80.1358 372.666 65.228 372.666 65.228L448.558 80.9859C448.558 80.9865 493.347 88.2917 490.898 125.757Z" fill="#3F456B"/>
</g>
</g>
</g>
<path d="M369.415 50.3453L445.312 66.1043C445.312 66.1043 490.097 73.4052 487.648 110.871C485.199 148.336 462.301 170.359 432.645 161.526L435.302 150.096C435.302 150.096 455.822 154.153 456.097 127.977C456.308 107.881 422.102 104.09 422.102 104.09C422.102 104.09 384.728 101.873 372.739 79.7939C364.842 65.2518 369.415 50.3453 369.415 50.3453Z" fill="#FC9359"/>
<path d="M435.301 150.096C435.301 150.096 415.542 138.589 399.032 143.317C382.522 148.046 389.332 172.665 405.572 166.747C417.508 162.397 420.171 160.847 432.645 161.526" fill="#FC9359"/>
<g opacity="0.3">
<g opacity="0.3">
<g opacity="0.3">
<path opacity="0.3" d="M368.209 63.9593C368.209 63.9593 371.618 87.2789 411.515 96.1709C411.515 96.1709 452.978 98.5029 461.445 119.206C469.913 139.909 448.394 150.364 442.893 149.764C442.893 149.764 456.422 146.904 456.087 127.245C455.753 107.585 422.101 104.091 422.101 104.091C422.101 104.091 374.052 102.948 368.209 63.9593Z" fill="#3F456B"/>
</g>
</g>
</g>
<g opacity="0.3">
<g opacity="0.3">
<g opacity="0.3">
<path opacity="0.3" d="M433.439 157.716C433.439 157.716 419.878 153.441 406.695 159.154C406.695 159.154 393.266 165.029 390.043 156.153C390.043 156.153 389.102 170.446 403.716 167.401C418.331 164.356 422.474 160.072 432.054 161.702L433.439 157.716Z" fill="#3F456B"/>
</g>
</g>
</g>
<g opacity="0.3">
<g opacity="0.3">
<g opacity="0.3">
<path opacity="0.3" d="M367.858 57.071L434.007 70.8063C434.007 70.8063 488.912 77.4503 486.752 117.74C486.752 117.74 495.031 80.095 452.192 67.5522L371.048 50.7036L367.858 57.071Z" fill="white"/>
</g>
</g>
</g>
<g opacity="0.3">
<g opacity="0.3">
<g opacity="0.3">
<path opacity="0.3" d="M433.944 155.281C433.944 155.281 417.426 146.502 403.93 149.049C390.434 151.595 389.353 159.479 389.353 159.479C389.353 159.479 385.675 148.611 400.217 144.711C414.76 140.811 434.217 151.77 434.217 151.77L433.944 155.281Z" fill="white"/>
</g>
</g>
</g>
<path d="M400.752 170.691C397.363 170.691 394.221 169.552 391.693 167.329C387.482 163.626 385.587 157.561 386.865 151.875C388.124 146.276 392.253 142.089 398.194 140.387C415.752 135.358 435.983 146.965 436.835 147.462C438.289 148.309 438.782 150.174 437.935 151.628C437.088 153.082 435.224 153.573 433.77 152.729C433.516 152.582 414.883 141.948 399.872 146.246C396.085 147.33 393.578 149.804 392.812 153.212C392.027 156.701 393.195 160.535 395.718 162.753C398.002 164.762 401.049 165.152 404.53 163.884C405.679 163.465 406.741 163.072 407.735 162.706C417.325 159.161 420.917 157.837 432.812 158.483C434.492 158.575 435.78 160.011 435.689 161.691C435.598 163.371 434.153 164.657 432.481 164.568C421.842 163.988 419.061 165.016 409.847 168.421C408.845 168.791 407.774 169.187 406.616 169.609C404.626 170.334 402.651 170.691 400.752 170.691Z" fill="#3F456B"/>
<path d="M420.476 106.801C420.005 106.801 419.527 106.691 419.08 106.46C417.585 105.687 416.999 103.85 417.772 102.355C430.273 78.1559 426.127 63.7454 426.084 63.6022C425.595 61.9923 426.504 60.2903 428.115 59.8016C429.722 59.3134 431.426 60.2208 431.915 61.832C432.122 62.5114 436.812 78.7775 423.187 105.152C422.644 106.199 421.579 106.801 420.476 106.801Z" fill="#3F456B"/>
<g opacity="0.3">
<g opacity="0.3">
<g opacity="0.3">
<g opacity="0.3">
<path opacity="0.3" d="M475.833 150.394C475.785 150.394 475.737 150.393 475.688 150.391C462.438 149.772 452.918 142.207 452.519 141.886C451.209 140.829 451.004 138.911 452.061 137.601C453.116 136.293 455.032 136.087 456.34 137.139C456.466 137.239 464.801 143.782 475.972 144.304C477.653 144.383 478.952 145.809 478.874 147.49C478.798 149.122 477.45 150.394 475.833 150.394Z" fill="white"/>
</g>
</g>
</g>
<g opacity="0.3">
<g opacity="0.3">
<g opacity="0.3">
<path opacity="0.3" d="M465.976 131.164C460.097 131.164 455.985 130.336 455.652 130.266C454.004 129.923 452.947 128.309 453.29 126.662C453.632 125.015 455.243 123.958 456.892 124.3C457.131 124.348 471.586 127.194 484.546 121.471C486.085 120.791 487.885 121.489 488.564 123.027C489.244 124.567 488.547 126.365 487.008 127.045C479.574 130.328 471.883 131.164 465.976 131.164Z" fill="white"/>
</g>
</g>
</g>
<g opacity="0.3">
<g opacity="0.3">
<g opacity="0.3">
<path opacity="0.3" d="M450.103 118.082C448.477 118.082 447.128 116.799 447.061 115.16C446.992 113.481 448.295 112.065 449.972 111.991C450.179 111.982 469.39 110.878 482.796 92.4854C483.786 91.1259 485.693 90.8267 487.053 91.8182C488.412 92.809 488.711 94.7151 487.72 96.0752C472.515 116.935 451.132 118.043 450.229 118.08C450.187 118.081 450.145 118.082 450.103 118.082Z" fill="white"/>
</g>
</g>
</g>
<g opacity="0.3">
<g opacity="0.3">
<g opacity="0.3">
<path opacity="0.3" d="M440.715 112.197C439.864 112.197 439.017 111.842 438.415 111.149C437.311 109.879 437.445 107.955 438.715 106.851C454.494 93.1344 456.318 70.4059 456.334 70.178C456.456 68.4998 457.928 67.2451 459.594 67.3596C461.272 67.4815 462.534 68.941 462.412 70.6192C462.337 71.6527 460.369 96.1014 442.713 111.449C442.136 111.951 441.424 112.197 440.715 112.197Z" fill="white"/>
</g>
</g>
</g>
</g>
<path d="M445.425 166.529C441.016 166.529 436.446 165.838 431.776 164.446C430.232 163.987 429.313 162.405 429.678 160.837L432.334 149.406C432.706 147.806 434.28 146.79 435.893 147.107C435.943 147.117 442.415 148.274 447.23 144.32C451.011 141.216 452.968 135.707 453.05 127.946C453.123 121.014 448.105 115.436 438.137 111.364C430.476 108.236 422.623 107.224 421.829 107.127C419.239 106.961 382.528 104.209 370.062 81.2485C361.652 65.76 366.301 50.1107 366.503 49.4526C366.964 47.948 368.496 47.0437 370.036 47.363L445.874 63.1093C446.958 63.2933 458.035 65.2926 468.962 71.8233C484.257 80.9639 491.77 94.5353 490.689 111.07C489.252 133.051 481.117 150.267 467.785 159.546C461.118 164.184 453.543 166.529 445.425 166.529ZM436.281 159.34C446.661 161.752 456.299 160.114 464.303 154.544C475.912 146.464 483.313 130.474 484.607 110.672C485.543 96.3677 479.226 85.0565 465.835 77.0536C455.563 70.9141 444.927 69.1293 444.821 69.1116C444.778 69.1043 444.735 69.0964 444.692 69.0872L371.742 53.9406C370.941 58.6188 370.152 68.6442 375.416 78.3406C386.469 98.6967 421.925 101.028 422.282 101.049C422.333 101.052 422.385 101.056 422.437 101.062C423.946 101.229 459.38 105.416 459.143 128.008C459.041 137.699 456.311 144.79 451.028 149.084C446.379 152.863 440.948 153.437 437.67 153.361L436.281 159.34Z" fill="#3F456B"/>
<path d="M408.54 78.1766C406.406 77.7336 405.036 75.6465 405.479 73.5131C405.922 71.3803 408.01 70.0104 410.143 70.4534C412.276 70.8964 413.646 72.9842 413.203 75.117C412.761 77.2504 410.672 78.6196 408.54 78.1766Z" fill="#3F456B"/>
<g opacity="0.2">
<g opacity="0.2">
<g opacity="0.2">
<path opacity="0.2" d="M408.429 259.293C401.963 252.031 404.126 232.288 431.538 205.139C458.95 177.99 476.278 198.881 476.278 198.881L478.587 201.475C478.587 201.475 497.335 221.101 467.2 245.191C437.066 269.282 417.205 269.149 410.738 261.887L408.429 259.293Z" fill="#3F456B"/>
</g>
</g>
</g>
<path d="M401.041 248.686C394.575 241.423 396.738 221.68 424.15 194.531C451.562 167.382 468.89 188.274 468.89 188.274L471.199 190.867C471.199 190.867 489.947 210.493 459.812 234.584C429.678 258.674 409.817 258.541 403.35 251.279L401.041 248.686Z" fill="#8F97B5"/>
<g opacity="0.2">
<g opacity="0.2">
<g opacity="0.2">
<path opacity="0.2" d="M430.118 190.267C430.118 190.267 450.042 177.835 465.224 194.885C478.824 210.16 463.555 229.488 463.555 229.488C463.555 229.488 489.108 210.981 469.867 189.371C450.626 167.761 430.118 190.267 430.118 190.267Z" fill="white"/>
</g>
</g>
</g>
<g opacity="0.2">
<g opacity="0.2">
<g opacity="0.2">
<path opacity="0.2" d="M417.737 204.799C417.737 204.799 399.314 232.029 410.068 244.107C420.822 256.185 449.683 240.677 449.683 240.677C449.683 240.677 418.549 265.077 404.509 249.307C390.467 233.537 417.737 204.799 417.737 204.799Z" fill="white"/>
</g>
</g>
</g>
<g opacity="0.4">
<g opacity="0.4">
<g opacity="0.4">
<path opacity="0.4" d="M458.949 224.673C445.903 236.29 427.884 245.951 419.829 235.286C411.577 224.358 420.915 208.227 433.961 196.61C447.008 184.994 463.177 181.859 470.078 189.608C476.978 197.358 471.996 213.057 458.949 224.673Z" fill="#3F456B"/>
</g>
</g>
</g>
<path d="M415.167 258.646C408.857 258.646 404.076 256.677 401.075 253.305L398.766 250.712C390.445 241.367 394.405 219.702 422.006 192.366C432.404 182.068 442.736 177.089 452.723 177.583C463.963 178.133 470.54 185.513 471.19 186.276L473.449 188.813C474.131 189.547 480.702 196.933 479.95 208.161C479.281 218.135 473.146 227.826 461.716 236.964C442.321 252.468 426.345 258.646 415.167 258.646ZM403.317 246.66L405.626 249.253C410.8 255.064 428.994 255.32 457.91 232.204C467.907 224.212 473.273 216.02 473.861 207.855C474.502 198.962 469.04 193.019 468.985 192.96C468.968 192.942 468.94 192.912 468.923 192.893L466.613 190.299C466.59 190.272 466.567 190.246 466.544 190.218C466.501 190.168 461.229 184.056 452.322 183.664C444.146 183.309 435.387 187.689 426.294 196.696C399.991 222.747 398.142 240.848 403.317 246.66Z" fill="#3F456B"/>
<path d="M459.611 223.694C471.791 213.285 476.489 198.79 470.104 191.32C463.72 183.85 448.67 186.232 436.49 196.642C424.31 207.051 419.612 221.546 425.997 229.016C432.381 236.487 447.431 234.104 459.611 223.694Z" fill="#FFBB78"/>
<g opacity="0.2">
<g opacity="0.2">
<g opacity="0.2">
<path opacity="0.2" d="M436.066 198.525C436.066 198.525 423.08 213.694 431.876 223.986C440.672 234.278 457.428 223.519 457.428 223.519C457.428 223.519 436.802 241.657 425.995 229.012C415.188 216.368 436.066 198.525 436.066 198.525Z" fill="#3F456B"/>
</g>
</g>
</g>
<g opacity="0.3">
<g opacity="0.3">
<g opacity="0.3">
<path opacity="0.3" d="M461.59 212.614C469.954 205.466 473.634 196.045 469.811 191.571C465.987 187.097 456.108 189.265 447.744 196.413C439.381 203.561 435.7 212.982 439.524 217.456C443.347 221.929 453.226 219.761 461.59 212.614Z" fill="white"/>
</g>
</g>
</g>
<path d="M436.807 236.417C431.292 236.417 426.721 234.552 423.679 230.992C416.087 222.109 420.843 206.001 434.509 194.322C448.175 182.642 464.826 180.453 472.419 189.336C480.011 198.219 475.254 214.327 461.589 226.006C455.276 231.402 448.002 234.974 441.105 236.066C439.62 236.301 438.184 236.417 436.807 236.417ZM459.285 190.003C453.107 190.003 445.241 193.166 438.468 198.954C427.769 208.098 423.118 220.956 428.311 227.033C430.685 229.81 434.89 230.881 440.153 230.047C445.954 229.129 452.161 226.048 457.63 221.374C468.329 212.231 472.98 199.372 467.787 193.295C465.881 191.066 462.867 190.003 459.285 190.003Z" fill="#3F456B"/>
<path d="M359.188 108.344C364.236 108.344 368.328 104.251 368.328 99.2031C368.328 94.1549 364.236 90.0625 359.188 90.0625C354.139 90.0625 350.047 94.1549 350.047 99.2031C350.047 104.251 354.139 108.344 359.188 108.344Z" fill="#58BA9E"/>
<path d="M359.188 111.391C352.467 111.391 347 105.923 347 99.2031C347 92.4829 352.467 87.0156 359.188 87.0156C365.908 87.0156 371.375 92.4829 371.375 99.2031C371.375 105.923 365.908 111.391 359.188 111.391ZM359.188 93.1094C355.827 93.1094 353.094 95.843 353.094 99.2031C353.094 102.563 355.827 105.297 359.188 105.297C362.548 105.297 365.281 102.563 365.281 99.2031C365.281 95.843 362.548 93.1094 359.188 93.1094Z" fill="#3F456B"/>
<path d="M367.719 178.422C372.767 178.422 376.859 174.329 376.859 169.281C376.859 164.233 372.767 160.141 367.719 160.141C362.671 160.141 358.578 164.233 358.578 169.281C358.578 174.329 362.671 178.422 367.719 178.422Z" fill="#58BA9E"/>
<path d="M367.719 181.469C360.999 181.469 355.531 176.001 355.531 169.281C355.531 162.561 360.999 157.094 367.719 157.094C374.439 157.094 379.906 162.561 379.906 169.281C379.906 176.001 374.439 181.469 367.719 181.469ZM367.719 163.188C364.359 163.188 361.625 165.921 361.625 169.281C361.625 172.641 364.359 175.375 367.719 175.375C371.079 175.375 373.813 172.641 373.813 169.281C373.813 165.921 371.079 163.188 367.719 163.188Z" fill="#3F456B"/>
<path d="M311.047 238.75C316.095 238.75 320.188 234.658 320.188 229.609C320.188 224.561 316.095 220.469 311.047 220.469C305.999 220.469 301.906 224.561 301.906 229.609C301.906 234.658 305.999 238.75 311.047 238.75Z" fill="#58BA9E"/>
<path d="M311.047 241.797C304.327 241.797 298.859 236.33 298.859 229.609C298.859 222.889 304.327 217.422 311.047 217.422C317.767 217.422 323.234 222.889 323.234 229.609C323.234 236.33 317.767 241.797 311.047 241.797ZM311.047 223.516C307.687 223.516 304.953 226.249 304.953 229.609C304.953 232.969 307.687 235.703 311.047 235.703C314.407 235.703 317.141 232.969 317.141 229.609C317.141 226.249 314.407 223.516 311.047 223.516Z" fill="#3F456B"/>
<path d="M488.375 195.484C493.423 195.484 497.516 191.392 497.516 186.344C497.516 181.296 493.423 177.203 488.375 177.203C483.327 177.203 479.234 181.296 479.234 186.344C479.234 191.392 483.327 195.484 488.375 195.484Z" fill="#58BA9E"/>
<path d="M488.375 198.531C481.655 198.531 476.188 193.064 476.188 186.344C476.188 179.624 481.655 174.156 488.375 174.156C495.095 174.156 500.562 179.624 500.562 186.344C500.562 193.064 495.095 198.531 488.375 198.531ZM488.375 180.25C485.015 180.25 482.281 182.984 482.281 186.344C482.281 189.704 485.015 192.438 488.375 192.438C491.735 192.438 494.469 189.704 494.469 186.344C494.469 182.984 491.735 180.25 488.375 180.25Z" fill="#3F456B"/>
<path d="M417.688 60.2031C422.736 60.2031 426.828 56.1107 426.828 51.0625C426.828 46.0143 422.736 41.9219 417.688 41.9219C412.639 41.9219 408.547 46.0143 408.547 51.0625C408.547 56.1107 412.639 60.2031 417.688 60.2031Z" fill="#58BA9E"/>
<path d="M417.688 63.25C410.967 63.25 405.5 57.7827 405.5 51.0625C405.5 44.3423 410.967 38.875 417.688 38.875C424.408 38.875 429.875 44.3423 429.875 51.0625C429.875 57.7827 424.408 63.25 417.688 63.25ZM417.688 44.9688C414.327 44.9688 411.594 47.7024 411.594 51.0625C411.594 54.4226 414.327 57.1562 417.688 57.1562C421.048 57.1562 423.781 54.4226 423.781 51.0625C423.781 47.7024 421.048 44.9688 417.688 44.9688Z" fill="#3F456B"/>
<path d="M299.469 99.2031C304.517 99.2031 308.609 95.1107 308.609 90.0625C308.609 85.0143 304.517 80.9219 299.469 80.9219C294.421 80.9219 290.328 85.0143 290.328 90.0625C290.328 95.1107 294.421 99.2031 299.469 99.2031Z" fill="#58BA9E"/>
<path d="M299.469 102.25C292.749 102.25 287.281 96.7827 287.281 90.0625C287.281 83.3423 292.749 77.875 299.469 77.875C306.189 77.875 311.656 83.3423 311.656 90.0625C311.656 96.7827 306.189 102.25 299.469 102.25ZM299.469 83.9688C296.109 83.9688 293.375 86.7024 293.375 90.0625C293.375 93.4226 296.109 96.1562 299.469 96.1562C302.829 96.1562 305.562 93.4226 305.562 90.0625C305.562 86.7024 302.829 83.9688 299.469 83.9688Z" fill="#3F456B"/>
</g>
<path d="M738.391 176.867H767.297V227.648H738.391V288H672.57V227.648H562.609L558.703 187.414L672.57 4.21094V3.625H738.391V176.867ZM621.398 176.867H672.57V89.3672L668.469 96.0078L621.398 176.867Z" fill="#EF5362"/>
</g>
<defs>
<clipPath id="clip0">
<rect width="768" height="301" fill="white"/>
</clipPath>
<clipPath id="clip1">
<rect width="312" height="312" fill="white" transform="translate(230 -5)"/>
</clipPath>
</defs>
</svg>
