<?xml version="1.0" ?><svg viewBox="0 0 64 64" xmlns="http://www.w3.org/2000/svg"><g data-name="05-cook" id="_05-cook"><rect height="3" style="fill:#da684e" width="62" x="1" y="60"/><rect height="4" style="fill:#da684e" width="46" x="9" y="27"/><path d="M9,35v4H7.24a2,2,0,0,1-1.79-1.11L4,35Z" style="fill:#423e35"/><path d="M60,35l-1.45,2.89A2,2,0,0,1,56.76,39H55V35Z" style="fill:#423e35"/><path d="M9,31v4H2a1,1,0,0,1-1-1V32a1,1,0,0,1,1-1Z" style="fill:#a0968c"/><path d="M63,32v2a1,1,0,0,1-1,1H55V31h7A1,1,0,0,1,63,32Z" style="fill:#a0968c"/><path d="M55,53a4,4,0,0,1-3.52,3.97A3.994,3.994,0,0,0,52,55c0-2.21-1-6-2-6s-6,4.79-6,7a3.129,3.129,0,0,0,.14.96L44,57H35.46A3.989,3.989,0,0,0,36,55c0-2.21-3-6-4-6s-4,3.79-4,6a3.989,3.989,0,0,0,.54,2H20l-.14-.04A3.129,3.129,0,0,0,20,56c0-2.21-5-7-6-7s-2,3.79-2,6a3.994,3.994,0,0,0,.52,1.97A4,4,0,0,1,9,53V31H55V53Z" style="fill:#e8e4dc"/><path d="M3,60H3a2,2,0,0,0,2,2H59a2,2,0,0,0,2-2h2v3H1V60Z" style="fill:#85392b"/><path d="M62,33H58a1,1,0,0,1-1-1V31H55v4h7a1,1,0,0,0,1-1V32A1,1,0,0,1,62,33Z" style="fill:#80786a"/><path d="M55,35v4h1V38a2,2,0,0,1,2-2h1.5l.5-1Z" style="fill:#292721"/><path d="M2,33H6a1,1,0,0,0,1-1V31H9v4H2a1,1,0,0,1-1-1V32A1,1,0,0,0,2,33Z" style="fill:#80786a"/><path d="M9,35v4H8V38a2,2,0,0,0-2-2H4.5L4,35Z" style="fill:#292721"/><path d="M9,27h3a2,2,0,0,0,2,2H50a2,2,0,0,0,2-2h3v4H9Z" style="fill:#bd4c3d"/><path d="M38,55c-.677,0-1.346-.035-2.008-.095,0,.031.008.065.008.095a3.989,3.989,0,0,1-.54,2H44l.14-.04A3.129,3.129,0,0,1,44,56a2.692,2.692,0,0,1,.247-1Z" style="fill:#d6cec1"/><path d="M53,55H52a3.994,3.994,0,0,1-.52,1.97A4,4,0,0,0,55,53,2,2,0,0,1,53,55Z" style="fill:#d6cec1"/><path d="M16,31H9V53a4,4,0,0,0,3.52,3.97A3.994,3.994,0,0,1,12,55c0-2.21,1-6,2-6s6,4.79,6,7a3.129,3.129,0,0,1-.14.96L20,57h8.54A3.989,3.989,0,0,1,28,55a5.172,5.172,0,0,1,.6-2.107A22.091,22.091,0,0,1,18.236,42.669,6.011,6.011,0,0,1,23.619,34H55V31Z" style="fill:#d6cec1"/><path d="M51.48,56.97A4.007,4.007,0,0,1,48,59c-1.85,0-3.41-.56-3.86-2.04A3.129,3.129,0,0,1,44,56c0-2.21,5-7,6-7s2,3.79,2,6A3.994,3.994,0,0,1,51.48,56.97Z" style="fill:#4c8db0"/><path d="M35.46,57A4,4,0,0,1,28,55c0-2.21,3-6,4-6s4,3.79,4,6A3.989,3.989,0,0,1,35.46,57Z" style="fill:#4c8db0"/><path d="M12.52,56.97A3.994,3.994,0,0,1,12,55c0-2.21,1-6,2-6s6,4.79,6,7a3.129,3.129,0,0,1-.14.96C19.41,58.44,17.85,59,16,59A4.007,4.007,0,0,1,12.52,56.97Z" style="fill:#4c8db0"/><rect height="2" rx="1" ry="1" style="fill:#ea735c" width="30" x="14" y="27"/><rect height="2" rx="1" ry="1" style="fill:#ea735c" width="5" x="45" y="27"/><path d="M53,40a2,2,0,0,0-2,2v8.154a12.058,12.058,0,0,1,.714,2.366A1.99,1.99,0,0,0,55,51V42A2,2,0,0,0,53,40Z" style="fill:#f7f3eb"/><rect height="5" rx="2" ry="2" style="fill:#f7f3eb" width="4" x="51" y="34"/><path d="M34.163,57.8a2.549,2.549,0,0,1-4.326,0,2.325,2.325,0,0,1-.337-1.2c0-1.326,1.875-3.6,2.5-3.6s2.5,2.274,2.5,3.6A2.325,2.325,0,0,1,34.163,57.8Z" style="fill:#65adaf"/><path d="M50.153,57.8a2.54,2.54,0,0,1-4.316,0,2.325,2.325,0,0,1-.337-1.2c0-1.326,3.867-3.6,4.491-3.6s.5,2.274.5,3.6A2.325,2.325,0,0,1,50.153,57.8Z" style="fill:#65adaf"/><path d="M13.847,57.8a2.54,2.54,0,0,0,4.316,0,2.325,2.325,0,0,0,.337-1.2c0-1.326-3.867-3.6-4.491-3.6s-.5,2.274-.5,3.6A2.325,2.325,0,0,0,13.847,57.8Z" style="fill:#65adaf"/><path d="M32,23v1H24V23a4,4,0,0,1,8,0Z" style="fill:#e84655"/><path d="M47.76,3.238a4.264,4.264,0,0,1,0,6.012l-.75.75L41,3.988l.75-.75A4.265,4.265,0,0,1,47.76,3.238Z" style="fill:#ffd669"/><path d="M37,20c0-6,6-6,6-6C43,20,37,20,37,20Z" style="fill:#869f3c"/><path d="M35,7s-6,0-6-6C29,1,35,1,35,7Z" style="fill:#869f3c"/><path d="M62.17,1.31a1.849,1.849,0,0,1,.58,2.47L52.07,22.01c.33.05,1.93.52,1.93,4.99H41c.83-5,5.81-5.83,7.46-5.97L59.53,1.93A1.864,1.864,0,0,1,62.17,1.31Z" style="fill:#da684e"/><path d="M4.412,4.412a2,2,0,1,1,2.829,0L9.92,7.091a3.211,3.211,0,0,0-1.979.85,3.211,3.211,0,0,0-.85,1.979L4.412,7.241a2,2,0,1,1,0-2.829Z" style="fill:#ede9e1"/><path d="M9.92,7.091c2.97-.31,7.478,1.84,9.318,3.679a5.988,5.988,0,0,1-8.468,8.468C8.931,17.4,6.781,12.89,7.091,9.92a3.211,3.211,0,0,1,.85-1.979A3.211,3.211,0,0,1,9.92,7.091Z" style="fill:#fad5c3"/><path d="M20.238,16.238a5.969,5.969,0,0,1-8.468,0,15.079,15.079,0,0,1-3.7-8.406c-.043.038-.092.068-.133.109a3.211,3.211,0,0,0-.85,1.979c-.31,2.97,1.84,7.478,3.679,9.318a5.972,5.972,0,0,0,10.2-3.888A6.022,6.022,0,0,1,20.238,16.238Z" style="fill:#f3c0a5"/><path d="M62.17,1.309a1.841,1.841,0,0,0-1.147-.3,1.991,1.991,0,0,1-.072,1.827L50.524,21.082a1,1,0,0,0,.421,1.391l.372.185A1.236,1.236,0,0,1,50.764,25H41.652A6.912,6.912,0,0,0,41,27H54c0-4.47-1.6-4.94-1.93-4.99L62.75,3.779A1.849,1.849,0,0,0,62.17,1.309Z" style="fill:#bd4c3d"/><path d="M8.415,5.585l-.708.708a1,1,0,0,1-1.414,0L4.412,4.412a2,2,0,1,0,0,2.829L7.091,9.92a3.211,3.211,0,0,1,.85-1.979,3.211,3.211,0,0,1,1.979-.85Z" style="fill:#ded9d0"/><path d="M11.4,8.056A1.787,1.787,0,0,0,10.28,8.5a1.261,1.261,0,0,0-.176,1.31,2.972,2.972,0,0,0,.862,1.087c1.049.918,2.3,1.6,3.33,2.533a15.983,15.983,0,0,0,2.413,2.165,2.465,2.465,0,0,0,1.59.387,2,2,0,0,0,1.434-1.1,2.877,2.877,0,0,0,.209-1.812,4.72,4.72,0,0,0-1.464-2.528A9,9,0,0,0,11.4,8.056Z" style="fill:#fce2d1"/><path d="M35,7,29,1C29,7,35,7,35,7Z" style="fill:#658f41"/><path d="M43,14l-6,6S43,20,43,14Z" style="fill:#658f41"/><ellipse cx="19.016" cy="12.75" rx="0.413" ry="0.574" style="fill:#fff3eb"/><ellipse cx="14.016" cy="16.75" rx="0.413" ry="0.574" style="fill:#f3c0a5" transform="translate(-7.738 14.81) rotate(-44.98)"/><ellipse cx="10.016" cy="15.75" rx="0.413" ry="0.574" style="fill:#f3ac86"/><ellipse cx="17.271" cy="11.25" rx="0.825" ry="1.148" style="fill:#fff3eb" transform="translate(-2.895 15.514) rotate(-45.02)"/><ellipse cx="12.271" cy="18.25" rx="0.825" ry="1.148" style="fill:#f3ac86" transform="translate(-9.312 14.029) rotate(-45.02)"/><ellipse cx="12.271" cy="15.25" rx="0.825" ry="1.148" style="fill:#f3c0a5" transform="translate(-7.19 13.15) rotate(-45.02)"/><ellipse cx="28.016" cy="22.75" rx="0.413" ry="0.574" style="fill:#ff858f"/><ellipse cx="26.016" cy="22.75" rx="0.413" ry="0.574" style="fill:#ff858f" transform="matrix(0.849, -0.529, 0.529, 0.849, -8.096, 17.204)"/><ellipse cx="27.016" cy="21.75" rx="0.413" ry="0.574" style="fill:#ff858f" transform="matrix(0.849, -0.529, 0.529, 0.849, -7.416, 17.581)"/><ellipse cx="30.016" cy="22.75" rx="0.574" ry="0.413" style="fill:#ff858f" transform="translate(-5.167 36.191) rotate(-58.067)"/><ellipse cx="29.016" cy="21.75" rx="0.574" ry="0.413" style="fill:#ff858f" transform="translate(-4.79 34.871) rotate(-58.067)"/><path d="M10.768,19.244C8.427,16.9,5.6,10.283,7.943,7.943s8.961.484,11.3,2.825a5.993,5.993,0,0,1-8.476,8.476Z" style="fill:none;stroke:#000;stroke-linejoin:round;stroke-width:2px"/><path d="M10.062,7.236,7.236,4.411a2,2,0,1,0-2.825,0,2,2,0,1,0,0,2.825l2.825,2.826" style="fill:none;stroke:#000;stroke-linejoin:round;stroke-width:2px"/><path d="M43,14s-6,0-6,6C37,20,43,20,43,14Z" style="fill:none;stroke:#000;stroke-linejoin:round;stroke-width:2px"/><path d="M29,1s6,0,6,6C35,7,29,7,29,1Z" style="fill:none;stroke:#000;stroke-linejoin:round;stroke-width:2px"/><path d="M24,23v1h8V23a4,4,0,0,0-4-4h0A4,4,0,0,0,24,23Z" style="fill:none;stroke:#000;stroke-linejoin:round;stroke-width:2px"/><path d="M47.756,9.249l-.75.751L41,3.994l.751-.75a4.245,4.245,0,0,1,6.005,0h0A4.245,4.245,0,0,1,47.756,9.249Z" style="fill:none;stroke:#000;stroke-linejoin:round;stroke-width:2px"/><line style="fill:none;stroke:#000;stroke-linejoin:round;stroke-width:2px" x1="25" x2="25" y1="9" y2="11"/><line style="fill:none;stroke:#000;stroke-linejoin:round;stroke-width:2px" x1="28" x2="28" y1="9" y2="11"/><line style="fill:none;stroke:#000;stroke-linejoin:round;stroke-width:2px" x1="31" x2="31" y1="9" y2="11"/><line style="fill:none;stroke:#000;stroke-linejoin:round;stroke-width:2px" x1="25" x2="25" y1="13" y2="15"/><line style="fill:none;stroke:#000;stroke-linejoin:round;stroke-width:2px" x1="28" x2="28" y1="13" y2="15"/><line style="fill:none;stroke:#000;stroke-linejoin:round;stroke-width:2px" x1="31" x2="31" y1="13" y2="15"/><path d="M62.173,1.311a1.863,1.863,0,0,0-2.64.614L48.46,21.031c-1.648.14-6.627.974-7.46,5.969H54c0-4.475-1.6-4.944-1.934-4.993L62.747,3.781A1.844,1.844,0,0,0,62.173,1.311Z" style="fill:none;stroke:#000;stroke-linejoin:round;stroke-width:2px"/><polyline points="60 60 63 60 63 63 1 63 1 60 4 60" style="fill:none;stroke:#000;stroke-linejoin:round;stroke-width:2px"/><line style="fill:none;stroke:#000;stroke-linejoin:round;stroke-width:2px" x1="6" x2="58" y1="60" y2="60"/><path d="M36,55a4,4,0,0,1-8,0c0-2.209,3-6,4-6S36,52.791,36,55Z" style="fill:none;stroke:#000;stroke-linejoin:round;stroke-width:2px"/><path d="M52,55a4,4,0,0,1-4,4c-2.209,0-4-.791-4-3s5-7,6-7S52,52.791,52,55Z" style="fill:none;stroke:#000;stroke-linejoin:round;stroke-width:2px"/><path d="M12,55a4,4,0,0,0,4,4c2.209,0,4-.791,4-3s-5-7-6-7S12,52.791,12,55Z" style="fill:none;stroke:#000;stroke-linejoin:round;stroke-width:2px"/><path d="M51,57a4,4,0,0,0,4-4V27H9V53a4,4,0,0,0,4,4" style="fill:none;stroke:#000;stroke-linejoin:round;stroke-width:2px"/><line style="fill:none;stroke:#000;stroke-linejoin:round;stroke-width:2px" x1="35" x2="44" y1="57" y2="57"/><line style="fill:none;stroke:#000;stroke-linejoin:round;stroke-width:2px" x1="20" x2="29" y1="57" y2="57"/><path d="M58,31h4a1,1,0,0,1,1,1v2a1,1,0,0,1-1,1H55V31" style="fill:none;stroke:#000;stroke-linejoin:round;stroke-width:2px"/><path d="M60,35l-1.447,2.894A2,2,0,0,1,56.764,39H55" style="fill:none;stroke:#000;stroke-linejoin:round;stroke-width:2px"/><path d="M6,31H2a1,1,0,0,0-1,1v2a1,1,0,0,0,1,1H9V31" style="fill:none;stroke:#000;stroke-linejoin:round;stroke-width:2px"/><path d="M4,35l1.447,2.894A2,2,0,0,0,7.236,39H9" style="fill:none;stroke:#000;stroke-linejoin:round;stroke-width:2px"/><line style="fill:none;stroke:#000;stroke-linejoin:round;stroke-width:2px" x1="12" x2="9" y1="31" y2="31"/><line style="fill:none;stroke:#000;stroke-linejoin:round;stroke-width:2px" x1="16" x2="14" y1="31" y2="31"/><line style="fill:none;stroke:#000;stroke-linejoin:round;stroke-width:2px" x1="55" x2="18" y1="31" y2="31"/></g></svg>