<svg width="16" height="16" viewBox="0 0 16 16" fill="none" xmlns="http://www.w3.org/2000/svg">
<g clip-path="url(#clip0)">
<path d="M2.25 4.5C2.52614 4.5 2.75 4.27614 2.75 4C2.75 3.72386 2.52614 3.5 2.25 3.5C1.97386 3.5 1.75 3.72386 1.75 4C1.75 4.27614 1.97386 4.5 2.25 4.5Z" fill="black"/>
<path d="M4 2.75C4.27614 2.75 4.5 2.52614 4.5 2.25C4.5 1.97386 4.27614 1.75 4 1.75C3.72386 1.75 3.5 1.97386 3.5 2.25C3.5 2.52614 3.72386 2.75 4 2.75Z" fill="black"/>
<path d="M15.9207 4.78178L15.8622 4.66468C15.7758 4.4912 15.6255 4.35796 15.4429 4.293C15.2603 4.22804 15.0596 4.23642 14.8831 4.31637L11.1462 6.02262L11.1493 6.02968C11.0327 6.06076 10.9237 6.11563 10.8293 6.19086C10.735 6.26609 10.6572 6.36004 10.6009 6.4668C10.5446 6.57356 10.511 6.69081 10.5022 6.81119C10.4934 6.93157 10.5097 7.05245 10.5499 7.16625L10.4764 7.21528C9.49541 6.72465 7.11628 7.12018 4.89341 7.8934C4.7628 7.93882 4.63259 7.98563 4.50278 8.03384C4.25713 7.12375 4.89284 6.46134 4.92744 6.42625L4.57325 6.07337C4.331 6.33535 4.14979 6.64774 4.04266 6.98809C3.91616 7.38676 3.91267 7.81428 4.03263 8.21497C3.63263 8.37468 3.24825 8.54353 2.88453 8.719C2.68281 7.97018 2.66491 7.19756 2.69238 6.63925C2.69803 6.52641 2.68105 6.41358 2.64243 6.30741C2.60381 6.20123 2.54434 6.10386 2.46751 6.02103C2.39067 5.9382 2.29804 5.87158 2.19507 5.8251C2.09209 5.77862 1.98086 5.75322 1.86791 5.75039C1.75497 5.74756 1.6426 5.76736 1.53743 5.80863C1.43226 5.8499 1.33641 5.9118 1.25553 5.99069C1.17465 6.06957 1.11037 6.16384 1.06649 6.26795C1.0226 6.37206 0.999997 6.48389 1 6.59687V8.365C0.999926 8.40081 0.985658 8.43512 0.960323 8.46043C0.934988 8.48574 0.900653 8.49996 0.864845 8.5C0.781122 8.49997 0.69822 8.51649 0.620909 8.54863C0.543598 8.58076 0.473405 8.62787 0.41437 8.68723C0.355335 8.7466 0.308623 8.81705 0.276922 8.89454C0.245222 8.97203 0.229159 9.05503 0.229657 9.13875C0.240741 9.54438 0.313024 9.94602 0.444063 10.3301C0.0615321 10.7396 -0.0752803 11.1108 0.0375009 11.4352C0.45747 12.6426 1.42241 13.5762 2.75453 14.0639C3.40933 14.3005 4.10063 14.42 4.79684 14.4171C5.55709 14.4145 6.31152 14.2845 7.02884 14.0327C8.47075 13.5312 9.668 12.5979 10.4 11.4048C11.1419 10.1956 11.3192 8.86475 10.8992 7.65731C10.8911 7.63432 10.8817 7.61178 10.8711 7.58981C10.9765 7.66442 11.0971 7.71469 11.2243 7.73699C11.3515 7.75929 11.482 7.75306 11.6065 7.71875L11.6095 7.72481L11.6468 7.70662C11.7226 7.68181 11.7947 7.64673 11.8609 7.60234L15.5747 5.79325C15.6644 5.75016 15.7446 5.68967 15.8107 5.61529C15.8767 5.54091 15.9273 5.45413 15.9595 5.36C15.9917 5.26587 16.0049 5.16628 15.9982 5.06702C15.9916 4.96776 15.9652 4.87076 15.9207 4.78178ZM0.509782 11.2709C0.475188 11.1715 0.532438 11.0198 0.665782 10.8419C0.813365 11.1223 1.01504 11.3706 1.25916 11.5726C1.14924 11.5623 1.04015 11.5446 0.932657 11.5195C0.695876 11.462 0.545657 11.3737 0.509782 11.2709ZM9.46734 8.52906C9.41466 8.97718 9.32691 9.0695 9.32322 9.07322L9.32806 9.07806C9.12109 9.219 8.89409 9.35956 8.64994 9.49828C8.81308 9.17536 8.92085 8.82735 8.96875 8.46875C8.977 8.4082 9.00689 8.35269 9.0529 8.31247C9.09891 8.27226 9.15793 8.25006 9.21903 8.25C9.25432 8.24999 9.28922 8.25745 9.32142 8.27189C9.35362 8.28634 9.3824 8.30743 9.40586 8.3338C9.42932 8.36016 9.44694 8.39119 9.45754 8.42485C9.46815 8.45851 9.47145 8.49401 9.46734 8.52906ZM4.55797 9.16003L4.94209 8.83993C4.85131 8.73179 4.76977 8.6162 4.69834 8.4944C4.81763 8.45037 4.93772 8.40731 5.05772 8.36553C6.42491 7.89 7.75772 7.58831 8.81028 7.51612C9.30006 7.48256 9.71291 7.50212 10.004 7.57278C10.2409 7.63022 10.3911 7.71853 10.4269 7.82143C10.4627 7.92434 10.3997 8.08675 10.2496 8.27881C10.1628 8.38723 10.0674 8.48853 9.96434 8.58172C9.98545 8.38535 9.92837 8.18858 9.80546 8.03399C9.68254 7.87941 9.50369 7.77945 9.30762 7.75577C9.11155 7.73209 8.91405 7.78658 8.75786 7.90745C8.60167 8.02832 8.49938 8.20585 8.47313 8.40159C8.34613 9.33631 7.79356 9.88103 7.63944 10.0167C7.06487 10.2827 6.47731 10.5197 5.87897 10.7268C5.62393 10.8155 5.37064 10.898 5.11909 10.9743C4.13138 10.7837 3.433 10.1868 3.04194 9.19784C3.41481 9.01597 3.81194 8.84109 4.22578 8.67597C4.3204 8.84781 4.43169 9.00991 4.55797 9.16003ZM0.768751 9.03994C0.781308 9.02722 0.796275 9.01714 0.812775 9.01029C0.829275 9.00343 0.846976 8.99993 0.864845 9C1.03324 8.99981 1.19468 8.93283 1.31376 8.81375C1.43283 8.69468 1.49981 8.53324 1.5 8.36484V6.59687C1.50006 6.50489 1.53662 6.4167 1.60166 6.35166C1.6667 6.28662 1.7549 6.25005 1.84688 6.25C1.8939 6.25002 1.94043 6.25961 1.98363 6.27817C2.02684 6.29673 2.06582 6.32389 2.0982 6.35798C2.13059 6.39208 2.1557 6.4324 2.17202 6.4765C2.18834 6.52061 2.19552 6.56756 2.19313 6.61453C2.15738 7.34087 2.19453 8.40943 2.57459 9.37522C2.7935 9.93147 3.10313 10.3892 3.49481 10.7356C3.71787 10.9323 3.96893 11.0948 4.23975 11.2177C3.68151 11.3602 3.11473 11.4669 2.54288 11.537C2.45403 11.5473 2.29116 11.5034 2.29116 11.5034C1.73278 11.4103 1.30872 11.0576 1.03072 10.4549C0.845127 10.039 0.742865 9.59083 0.72972 9.13562C0.729545 9.11788 0.732907 9.10028 0.739608 9.08385C0.74631 9.06742 0.756217 9.05249 0.768751 9.03994ZM11.3301 7.24706L11.3887 7.20803C11.4163 7.18997 11.4401 7.16661 11.4587 7.1393C11.4773 7.11199 11.4903 7.08126 11.4969 7.04889C11.5036 7.01653 11.5037 6.98317 11.4974 6.95074C11.4911 6.91832 11.4784 6.88747 11.4601 6.85998C11.4417 6.83249 11.4181 6.8089 11.3906 6.79059C11.3631 6.77227 11.3323 6.75959 11.2999 6.75327C11.2674 6.74695 11.2341 6.74713 11.2017 6.75378C11.1693 6.76043 11.1386 6.77343 11.1113 6.79203L11.0004 6.86593C11.0019 6.80264 11.0193 6.74074 11.0512 6.68602C11.083 6.63129 11.1282 6.58552 11.1825 6.55298C11.2368 6.52043 11.2985 6.50217 11.3617 6.49991C11.425 6.49764 11.4878 6.51144 11.5443 6.54001C11.6008 6.56859 11.6492 6.61101 11.6848 6.66332C11.7205 6.71562 11.7423 6.77611 11.7483 6.83914C11.7543 6.90217 11.7442 6.96569 11.719 7.02376C11.6937 7.08184 11.6542 7.13258 11.6041 7.17125L11.4666 7.23828C11.4221 7.25001 11.3757 7.25298 11.3301 7.24706Z" fill="black"/>
<path d="M3.75 5H3.25V5.5H3.75V5Z" fill="black"/>
<path d="M3.5 7.25H3V7.75H3.5V7.25Z" fill="black"/>
<path d="M5 9.5H4.5V10H5V9.5Z" fill="black"/>
<path d="M1 4.75H0.5V5.25H1V4.75Z" fill="black"/>
<path d="M2.61134 11.458L2.88869 11.042C2.27769 10.6347 2.25072 10.2594 2.25 10.2436C2.25022 10.2478 2.25 10.25 2.25 10.25H1.75C1.75 10.3149 1.77416 10.9 2.61134 11.458Z" fill="black"/>
<path d="M4.75 4.74999C4.75 4.49506 4.86334 4.18912 5.07778 3.86527C5.18105 3.70904 5.29791 3.56223 5.427 3.42656L5.25 3.24999L5.07322 3.07321C5.03962 3.10684 4.25 3.90624 4.25 4.74999H4.75Z" fill="black"/>
</g>
<defs>
<clipPath id="clip0">
<rect width="16" height="16" fill="white"/>
</clipPath>
</defs>
</svg>
