<?xml version="1.0" ?><svg enable-background="new 0 0 512 512" version="1.1" viewBox="0 0 512 512" xml:space="preserve" xmlns="http://www.w3.org/2000/svg" xmlns:xlink="http://www.w3.org/1999/xlink"><g id="Colors"><g><g><g><g><circle cx="256.5" cy="255.5" fill="#9398AA" r="240"/></g></g></g><g opacity="0.3"><g><g><path d="M90.984,429.5c0,0-138.152-179.239,11.365-326.85C249.564-42.686,428.06,92.424,428.06,92.424       S270.734-75.096,84.662,86.216C84.662,86.216-76.384,245.881,90.984,429.5z" fill="#3F456B"/></g></g></g><g opacity="0.2"><g><g><path d="M419.272,83.606c0,0,138.151,179.24-11.366,326.851C260.693,555.792,82.197,420.682,82.197,420.682       s157.324,167.52,343.397,6.208C425.595,426.89,586.641,267.225,419.272,83.606z" fill="#FFFFFF"/></g></g></g><g><g><g><path d="M256.5,500.5c-65.442,0-126.967-25.484-173.241-71.759C36.984,382.467,11.5,320.942,11.5,255.5       S36.984,128.533,83.259,82.259C129.533,35.984,191.058,10.5,256.5,10.5s126.967,25.484,173.241,71.759       C476.016,128.533,501.5,190.058,501.5,255.5s-25.484,126.967-71.759,173.241C383.467,475.016,321.942,500.5,256.5,500.5z        M256.5,20.5c-62.771,0-121.785,24.444-166.17,68.83C45.944,133.715,21.5,192.729,21.5,255.5s24.444,121.785,68.83,166.17       c44.386,44.385,103.399,68.83,166.17,68.83s121.785-24.444,166.17-68.83c44.385-44.386,68.83-103.399,68.83-166.17       s-24.444-121.785-68.83-166.17C378.285,44.944,319.271,20.5,256.5,20.5z" fill="#3F456B"/></g></g></g></g><g opacity="0.8"><g><g><ellipse cx="255.824" cy="255.604" fill="#FFFFFF" rx="174.872" ry="174.872" transform="matrix(0.7071 -0.7071 0.7071 0.7071 -105.8098 255.7597)"/></g></g></g><g opacity="0.3"><g><g><ellipse cx="276.517" cy="277.541" fill="#3F456B" rx="206.483" ry="206.483" transform="matrix(0.7071 -0.7071 0.7071 0.7071 -115.2611 276.8172)"/></g></g></g><g><g><g><ellipse cx="255.824" cy="256.848" fill="#F4BC84" rx="206.483" ry="206.483" transform="matrix(0.7071 -0.7071 0.7071 0.7071 -106.6898 256.1243)"/></g></g></g><g opacity="0.2"><g><g><circle cx="167.463" cy="182.353" fill="#FFFFFF" r="87.875"/></g></g></g><g opacity="0.2"><g><g><path d="M96.496,380.657c0,0-90.547-136.856,28.28-255.683s244.541-36.657,244.541-36.657      S228.526-7.33,110.146,111.05S96.496,380.657,96.496,380.657z" fill="#FFFFFF"/></g></g></g><g opacity="0.1"><g><g><path d="M413.988,126.648c0,0,92.555,139.89-28.906,261.351s-249.962,37.47-249.962,37.47      s143.911,97.766,264.915-23.238S413.988,126.648,413.988,126.648z" fill="#3F456B"/></g></g></g><g><g><g><path d="M451.876,117.84c-1.81,0-3.556-0.985-4.445-2.704c-1.269-2.453-0.309-5.469,2.144-6.738l33.97-17.57      c0.107-0.056,0.216-0.107,0.327-0.155c1.543-0.683,4.926-2.887,5.37-5.268c0.423-2.268-1.962-5.055-3.422-6.514l-56.566-56.566      c-1.459-1.459-4.246-3.846-6.514-3.422c-2.38,0.444-4.584,3.827-5.279,5.396c-0.041,0.092-0.097,0.212-0.144,0.301l-17.57,33.97      c-1.269,2.455-4.286,3.413-6.738,2.144c-2.453-1.269-3.413-4.285-2.144-6.738l17.5-33.834      c0.724-1.606,4.667-9.553,12.465-11.055c5.187-1.001,10.403,1.075,15.495,6.167l56.566,56.566      c5.091,5.092,7.166,10.305,6.167,15.495c-1.501,7.798-9.449,11.742-11.055,12.465l-33.834,17.5      C453.435,117.66,452.649,117.84,451.876,117.84z" fill="#3F456B"/></g></g></g><g><g><g><path d="M87.295,496.786c-4.349,0-8.696-2.148-12.959-6.411l-56.566-56.566      c-5.092-5.092-7.167-10.305-6.167-15.495c1.502-7.797,9.449-11.742,11.055-12.465l33.833-17.5      c2.454-1.269,5.469-0.31,6.738,2.144s0.309,5.47-2.144,6.738l-33.969,17.571c-0.107,0.056-0.217,0.107-0.328,0.155      c-1.543,0.683-4.926,2.887-5.37,5.267c-0.423,2.268,1.962,5.055,3.422,6.515l56.566,56.566c1.789,1.789,4.374,3.834,6.533,3.418      c2.643-0.509,4.845-4.424,5.249-5.367c0.047-0.111,0.099-0.22,0.155-0.328l17.571-33.969c1.27-2.452,4.285-3.412,6.738-2.144      c2.453,1.269,3.413,4.285,2.144,6.738l-17.5,33.833c-0.723,1.606-4.667,9.553-12.465,11.055      C88.987,496.705,88.141,496.786,87.295,496.786z" fill="#3F456B"/></g></g></g><g opacity="0.3"><g><g><g><path d="M296.976,99.474c-0.37,0-0.746-0.041-1.122-0.127c-2.691-0.617-4.374-3.299-3.756-5.991       c0.258-1.215,0.565-5.02-1.186-7.56c-1.163-1.687-3.146-2.727-6.061-3.179c-2.915-0.452-5.119-0.062-6.739,1.192       c-2.439,1.89-3.299,5.608-3.425,6.881c-0.271,2.732-2.691,4.753-5.43,4.508c-2.735-0.249-4.76-2.635-4.533-5.372       c0.075-0.898,0.908-8.919,7.163-13.844c2.66-2.096,7.336-4.361,14.498-3.248c7.162,1.112,10.931,4.687,12.831,7.49       c4.467,6.59,2.83,14.486,2.628,15.365C301.314,97.906,299.254,99.474,296.976,99.474z" fill="#3F456B"/></g></g></g><g><g><g><path d="M410.625,297.053c-2.701,0-4.924-2.153-4.996-4.869c-0.073-2.76,2.106-5.057,4.867-5.129       c1.241-0.053,5.002-0.702,7.026-3.031c1.344-1.546,1.858-3.726,1.571-6.661c-0.29-2.958-1.229-5.005-2.872-6.26       c-2.918-2.229-7.397-1.587-7.442-1.581c-2.723,0.47-5.305-1.366-5.769-4.088c-0.464-2.722,1.366-5.305,4.088-5.769       c0.889-0.151,8.865-1.341,15.191,3.49c2.692,2.055,6.049,6.02,6.755,13.233c0.707,7.213-1.818,11.753-4.06,14.292       c-5.27,5.967-13.325,6.347-14.227,6.371C410.715,297.053,410.67,297.053,410.625,297.053z" fill="#3F456B"/></g></g></g><g><g><g><path d="M349.385,181.797c-0.854,0-1.719-0.219-2.51-0.679c-2.387-1.389-3.196-4.45-1.807-6.836       c0.607-1.083,2.031-4.625,1.114-7.571c-0.609-1.957-2.193-3.539-4.842-4.837c-2.648-1.298-4.868-1.58-6.789-0.864       c-2.891,1.08-4.817,4.375-5.316,5.553c-1.069,2.529-3.985,3.742-6.524,2.691c-2.537-1.05-3.761-3.931-2.731-6.476       c0.338-0.836,3.518-8.247,10.954-11.091c3.163-1.209,8.299-1.982,14.808,1.208c6.508,3.19,9.044,7.724,10.026,10.965       c2.307,7.62-1.603,14.673-2.056,15.452C352.783,180.906,351.107,181.797,349.385,181.797z" fill="#3F456B"/></g></g></g><g><g><g><path d="M409.614,209.115c-1.989,0-3.869-1.195-4.648-3.155c-1.02-2.566,0.234-5.473,2.801-6.493       c1.147-0.477,4.454-2.383,5.551-5.266c0.729-1.915,0.46-4.138-0.821-6.794c-1.282-2.657-2.854-4.251-4.807-4.873       c-2.94-0.934-6.49,0.466-7.609,1.085c-2.404,1.326-5.446,0.48-6.794-1.913c-1.347-2.393-0.531-5.414,1.851-6.781       c0.782-0.448,7.86-4.312,15.464-1.959c3.235,1.002,7.753,3.566,10.902,10.095s2.344,11.66,1.114,14.815       c-2.891,7.418-10.321,10.551-11.159,10.884C410.854,209.001,410.229,209.115,409.614,209.115z" fill="#3F456B"/></g></g></g><g><g><g><g><path d="M344.947,394.926c-0.437,0-0.852-0.018-1.244-0.049c-7.936-0.634-13.075-6.849-13.635-7.555        c-1.715-2.164-1.351-5.309,0.814-7.024c2.164-1.716,5.308-1.352,7.024,0.814c0.787,0.96,3.564,3.579,6.641,3.8        c2.038,0.147,4.094-0.749,6.271-2.742c2.192-2.007,3.266-3.987,3.283-6.054c0.031-3.673-3.17-6.871-3.203-6.901        c-2.005-1.899-2.091-5.063-0.193-7.069c1.898-2.004,5.062-2.092,7.069-0.193c0.654,0.62,6.393,6.286,6.327,14.247        c-0.028,3.386-1.184,8.451-6.53,13.345C352.846,393.872,348.276,394.926,344.947,394.926z" fill="#3F456B"/></g></g></g><g><g><g><path d="M320.284,410.209c-2.632,0-4.79-0.597-6.409-1.291c-7.318-3.135-10.203-10.666-10.508-11.514        c-0.934-2.599,0.416-5.462,3.015-6.396c2.597-0.932,5.462,0.415,6.396,3.015c0.438,1.162,2.234,4.53,5.079,5.723        c1.889,0.792,4.12,0.597,6.818-0.596c2.718-1.202,4.369-2.736,5.045-4.688c1.202-3.471-0.81-7.523-0.831-7.562        c-1.293-2.44-0.365-5.466,2.075-6.76c2.44-1.292,5.466-0.365,6.76,2.075c0.422,0.796,4.051,7.998,1.445,15.521        c-1.108,3.2-3.821,7.63-10.45,10.561C325.54,409.702,322.71,410.209,320.284,410.209z" fill="#3F456B"/></g></g></g></g><g><g><g><path d="M183.893,429.125c-2.957,0-6.608-0.802-10.656-3.413c-6.091-3.928-8.08-8.727-8.676-12.061       c-1.401-7.837,3.306-14.385,3.848-15.105c1.658-2.208,4.792-2.654,7-0.996c2.208,1.658,2.654,4.792,0.996,7       c-0.73,1.005-2.558,4.355-1.991,7.388c0.376,2.014,1.764,3.771,4.243,5.37c2.498,1.61,4.686,2.147,6.689,1.64       c3.561-0.903,5.841-4.81,5.862-4.849c1.328-2.422,4.369-3.308,6.788-1.98c2.421,1.328,3.308,4.367,1.98,6.788       c-0.434,0.791-4.457,7.779-12.174,9.735C186.701,428.92,185.385,429.125,183.893,429.125z" fill="#3F456B"/></g></g></g><g><g><g><path d="M100.634,280.111c-3.021,0-8.36-0.592-12.737-4.218c-2.608-2.161-5.805-6.255-6.225-13.491       c-0.419-7.236,2.283-11.672,4.624-14.12c5.501-5.752,13.553-5.812,14.468-5.802c2.761,0.037,4.97,2.305,4.933,5.066       s-2.316,4.974-5.066,4.933c-1.242,0.003-5.026,0.503-7.141,2.75c-1.404,1.492-2.004,3.649-1.833,6.594       c0.172,2.967,1.029,5.05,2.621,6.369c2.829,2.343,7.33,1.882,7.373,1.875c2.738-0.351,5.247,1.576,5.603,4.314       c0.355,2.739-1.576,5.247-4.314,5.603C102.682,280.016,101.843,280.111,100.634,280.111z" fill="#3F456B"/></g></g></g><g><g><g><path d="M177.145,110.085c-1.934,0-3.769-1.126-4.578-3.017c-0.355-0.829-3.374-8.306-0.154-15.587       c1.37-3.097,4.44-7.287,11.29-9.658c6.848-2.372,11.854-0.978,14.845,0.61c7.033,3.731,9.284,11.475,9.518,12.346       c0.715,2.667-0.867,5.409-3.535,6.125c-2.67,0.712-5.41-0.868-6.125-3.535c-0.341-1.194-1.851-4.7-4.587-6.124       c-1.817-0.945-4.055-0.937-6.844,0.028c-2.787,0.965-4.552,2.342-5.396,4.209c-1.27,2.812-0.289,6.5,0.196,7.684       c1.041,2.541-0.154,5.465-2.687,6.526C178.451,109.958,177.792,110.085,177.145,110.085z" fill="#3F456B"/></g></g></g><g><g><g><path d="M256.377,212.712c-2.486,0-4.64-1.852-4.955-4.382c-0.112-0.895-0.942-8.916,4.169-15.02       c2.174-2.597,6.285-5.772,13.523-6.154c7.23-0.382,11.659,2.344,14.095,4.698c5.725,5.532,5.743,13.597,5.726,14.498       c-0.052,2.761-2.307,4.95-5.092,4.906c-2.761-0.051-4.958-2.331-4.906-5.092c0.003-1.242-0.477-5.028-2.712-7.155       c-1.484-1.413-3.638-2.022-6.584-1.868c-2.968,0.156-5.056,1.003-6.382,2.587c-2.358,2.817-1.919,7.319-1.914,7.364       c0.342,2.74-1.603,5.238-4.343,5.58C256.792,212.699,256.583,212.712,256.377,212.712z" fill="#3F456B"/></g></g></g></g></g><g id="Lines"><g><g><g><path d="M255.824,468.156c-116.515,0-211.307-94.792-211.307-211.308S139.309,45.541,255.824,45.541      c116.516,0,211.308,94.792,211.308,211.308S372.34,468.156,255.824,468.156z M255.824,55.541      c-111.001,0-201.307,90.306-201.307,201.308s90.306,201.308,201.307,201.308c111.001,0,201.308-90.307,201.308-201.308      S366.826,55.541,255.824,55.541z" fill="#3F456B"/></g></g></g><g><g opacity="0.2"><g><g><path d="M70.08,280.629c17.04-59.21,61.46-86.5,105.92-61.96v0.01c19.76,5.45,24.57,3.9,45.23,1.1       c28.11-3.8,30.41,38.05,2.28,39.85c-28.12,1.81-55.77-23.56-55.77-23.56s-31.48-13.69-41.09,28.18       c-7.37,32.15,46.14,50.2,46.14,50.2s59.15,16.64,70.64,56.23c7.57,26.08-4.98,48.38-4.98,48.38l-116.16-51.83       C122.29,367.229,53.04,339.839,70.08,280.629z" fill="#3F456B"/></g></g></g><g><g><g><path d="M238.451,397.058l-116.165-51.832c0,0-69.247-27.383-52.206-86.592s61.461-86.503,105.915-61.959       l-8.26,17.396c0,0-31.48-13.688-41.083,28.183c-7.372,32.144,46.142,50.196,46.142,50.196s59.144,16.637,70.636,56.232       C251,374.76,238.451,397.058,238.451,397.058z" fill="#FC9359"/></g></g></g><g><g><g><path d="M167.736,214.07c0,0,27.652,25.365,55.776,23.564c28.124-1.803,25.825-43.657-2.283-39.853       c-20.66,2.796-25.472,4.349-45.233-1.106" fill="#FC9359"/></g></g></g><g opacity="0.3"><g><g><path d="M245.151,375.655c0,0,2.698-38.58-58.156-66.803c0,0-65.659-18.253-71.988-54.409       s31.831-45.385,40.441-42.499c0,0-22.691-0.151-29.036,31.486c-6.345,31.637,46.383,49.019,46.383,49.019       S249.431,311.099,245.151,375.655z" fill="#3F456B"/></g></g></g><g opacity="0.3"><g><g><path d="M173.39,202.505c0,0,20.245,11.601,43.38,7.056c0,0,23.587-4.718,25.647,10.641       c0,0,6.512-22.586-17.984-22.821s-32.639,5.184-47.427-0.782L173.39,202.505z" fill="#3F456B"/></g></g></g><g opacity="0.3"><g><g><path d="M243.301,386.82l-101.244-45.175c0,0-85.703-29.872-68.136-93.71c0,0-26.45,57.457,37.841,92.561       l124.197,55.417L243.301,386.82z" fill="#FFFFFF"/></g></g></g><g opacity="0.3"><g><g><path d="M171.726,206.232c0,0,23.41,19.857,45.939,20.498c22.529,0.641,27.022-11.619,27.022-11.619       s2.093,18.712-22.588,19.874c-24.681,1.162-52.04-23.22-52.04-23.22L171.726,206.232z" fill="#FFFFFF"/></g></g></g><g><g><g><path d="M220.616,242.726c-28.697,0-55.109-23.916-56.26-24.971c-2.035-1.867-2.171-5.03-0.305-7.064       c1.866-2.033,5.027-2.172,7.062-0.308l0,0c0.262,0.239,26.463,23.903,52.079,22.262c6.452-0.414,11.338-3.502,13.759-8.697       c2.479-5.319,1.948-11.875-1.32-16.313c-2.959-4.02-7.704-5.711-13.732-4.898c-1.989,0.27-3.831,0.527-5.553,0.768       c-16.616,2.324-22.833,3.192-41.682-2.009c-2.662-0.735-4.224-3.488-3.489-6.15c0.734-2.662,3.486-4.226,6.15-3.489       c16.854,4.652,21.672,3.977,37.635,1.745c1.736-0.243,3.592-0.502,5.597-0.774c9.589-1.295,18.017,1.939,23.126,8.879       c5.455,7.41,6.37,17.798,2.331,26.466c-3.978,8.536-12.063,13.804-22.183,14.453       C222.758,242.692,221.684,242.726,220.616,242.726z" fill="#3F456B"/></g></g></g><g><g><g><path d="M147.245,361.351c-2.582,0-4.766-1.971-4.975-4.586c-0.093-1.162-1.918-28.882,29.159-66.397       c1.762-2.127,4.914-2.423,7.04-0.661c2.127,1.762,2.423,4.914,0.661,7.04c-14.783,17.846-21.307,33.026-24.177,42.619       c-3.093,10.34-2.717,16.571-2.713,16.633c0.185,2.743-1.878,5.136-4.62,5.338C147.495,361.347,147.369,361.351,147.245,361.351       z" fill="#3F456B"/></g></g></g><g opacity="0.3"><g><g><g><path d="M133.364,229.338c-1.46,0-2.907-0.636-3.895-1.861c-0.183-0.224-11.254-13.615-28.968-18.359        c-2.667-0.714-4.25-3.456-3.536-6.123c0.714-2.667,3.455-4.25,6.123-3.536c21.026,5.63,33.643,21.091,34.169,21.747        c1.73,2.152,1.388,5.299-0.765,7.029C135.57,228.978,134.463,229.338,133.364,229.338z" fill="#FFFFFF"/></g></g></g><g><g><g><path d="M126.125,248.305c-0.68,0-1.371-0.14-2.033-0.435c-0.318-0.141-22.523-9.787-45.329-5.145        c-2.704,0.549-5.346-1.195-5.897-3.902c-0.551-2.706,1.196-5.346,3.902-5.897c26.075-5.309,50.378,5.355,51.4,5.812        c2.521,1.126,3.651,4.083,2.525,6.605C129.862,247.202,128.037,248.305,126.125,248.305z" fill="#FFFFFF"/></g></g></g><g><g><g><path d="M68.107,291.071c-1.38,0-2.753-0.568-3.741-1.681c-1.833-2.065-1.645-5.225,0.42-7.059        c31.679-28.123,66.35-22.416,67.81-22.157c2.72,0.478,4.537,3.07,4.059,5.79c-0.478,2.716-3.061,4.53-5.778,4.061        c-0.401-0.069-31.551-4.983-59.451,19.784C70.472,290.655,69.287,291.071,68.107,291.071z" fill="#FFFFFF"/></g></g></g><g><g><g><path d="M101.247,338.417c-0.471,0-0.95-0.067-1.424-0.208c-2.645-0.786-4.155-3.562-3.373-6.208        c0.482-1.63,12.194-40.14,45.875-58.566c2.424-1.326,5.461-0.436,6.786,1.986c1.326,2.423,0.436,5.461-1.986,6.786        c-29.993,16.409-40.979,52.274-41.086,52.635C105.392,337.012,103.402,338.417,101.247,338.417z" fill="#FFFFFF"/></g></g></g></g><g><g><g><path d="M238.448,402.059c-0.683,0-1.375-0.141-2.035-0.435l-116.076-51.792       c-1.674-0.675-18.733-7.757-33.967-22.052c-21.322-20.009-28.616-44.397-21.095-70.528       c9.999-34.739,29.066-59.492,53.689-69.702c18.998-7.877,39.555-6.235,59.447,4.748c2.313,1.277,3.234,4.134,2.1,6.521       l-8.259,17.396c-1.156,2.437-4.038,3.516-6.51,2.441c-0.078-0.032-10.049-4.152-19.153,0.5       c-7.148,3.654-12.216,11.801-15.063,24.215c-6.139,26.766,40.312,43.447,42.771,44.308c1.712,0.493,16.084,4.768,31.953,13.679       c22.393,12.573,36.91,28.456,41.981,45.931c8.062,27.775-4.87,51.238-5.424,52.223       C241.896,401.13,240.204,402.059,238.448,402.059z M143.252,192.679c-6.98,0-13.843,1.366-20.458,4.108       c-21.44,8.89-38.903,31.936-47.91,63.23c-6.506,22.606-0.339,42.952,18.329,60.471c14.32,13.438,30.746,20.023,30.911,20.088       c0.066,0.027,0.133,0.055,0.199,0.084l111.656,49.82c2.922-7.219,7.696-23.018,2.649-40.405       c-10.595-36.506-66.624-52.654-67.188-52.813c-0.082-0.023-0.164-0.048-0.244-0.075c-2.36-0.796-57.705-19.914-49.417-56.051       c3.555-15.5,10.415-25.914,20.388-30.95c8.775-4.431,17.681-3.445,22.913-2.18l4.32-9.099       C160.671,194.761,151.873,192.679,143.252,192.679z" fill="#3F456B"/></g></g></g><g><g><g><g><path d="M185.467,338.742c3.265,1.457,4.731,5.283,3.274,8.548c-1.456,3.264-5.283,4.73-8.548,3.273        c-3.264-1.456-4.73-5.284-3.274-8.548C178.375,338.75,182.202,337.286,185.467,338.742z" fill="#3F456B"/></g></g></g></g></g><g><g><g><g><path d="M155.101,165.299l-5.803-17.867c-1.699-5.231,1.191-10.901,6.422-12.6l17.568-5.706       c3.677-1.194,7.626,0.819,8.82,4.495l5.803,17.867c1.699,5.231-1.191,10.901-6.422,12.6l-17.568,5.706       C160.244,170.989,156.295,168.976,155.101,165.299z" fill="#EF5362"/></g></g></g><g><g><g><path d="M161.746,175.143c-1.868,0-3.724-0.442-5.437-1.315c-2.855-1.455-4.974-3.936-5.963-6.984       l-5.803-17.868c-2.555-7.867,1.767-16.345,9.633-18.899l17.568-5.706c6.293-2.042,13.077,1.414,15.12,7.706l5.803,17.868       c2.555,7.867-1.767,16.346-9.633,18.9l-17.568,5.706C164.245,174.946,162.993,175.143,161.746,175.143z M175.449,133.784       c-0.205,0-0.412,0.032-0.617,0.098l-17.567,5.706c-2.622,0.852-4.063,3.678-3.211,6.3l5.803,17.868c0,0,0,0,0,0       c0.223,0.685,0.718,1.023,0.994,1.164c0.276,0.14,0.839,0.341,1.526,0.12l17.568-5.706c2.622-0.852,4.062-3.678,3.211-6.3       l-5.803-17.867C177.079,134.322,176.292,133.784,175.449,133.784z" fill="#3F456B"/></g></g></g></g><g><g><g><g><path d="M273.07,337.862l7.084-17.399c2.074-5.094,7.939-7.565,13.033-5.491l17.108,6.965       c3.581,1.458,5.302,5.542,3.844,9.123l-7.084,17.399c-2.074,5.094-7.939,7.565-13.033,5.491l-17.108-6.965       C273.334,345.527,271.613,341.442,273.07,337.862z" fill="#EF5362"/></g></g></g><g><g><g><path d="M297.774,359.688c-1.881,0-3.791-0.355-5.637-1.107l-17.108-6.965       c-6.128-2.495-9.084-9.511-6.59-15.639c0,0,0,0,0,0l7.084-17.399c1.506-3.701,4.374-6.597,8.073-8.156       s7.775-1.587,11.476-0.081l17.107,6.965c6.128,2.495,9.084,9.51,6.589,15.639l-7.084,17.399       C309.319,356.158,303.696,359.688,297.774,359.688z M277.702,339.746c-0.416,1.022,0.077,2.191,1.098,2.607l17.107,6.965       c2.554,1.039,5.477-0.192,6.517-2.746l7.084-17.399c0.416-1.021-0.077-2.19-1.098-2.606l-17.108-6.965       c-1.228-0.5-2.586-0.487-3.822,0.034c-1.238,0.521-2.195,1.484-2.694,2.711L277.702,339.746L277.702,339.746z" fill="#3F456B"/></g></g></g></g><g><g><g><g><path d="M227.002,439.796l1.608-18.717c0.471-5.48,5.339-9.578,10.819-9.108l18.404,1.581       c3.852,0.331,6.706,3.722,6.375,7.573l-1.608,18.717c-0.471,5.48-5.339,9.578-10.819,9.108l-18.404-1.581       C229.525,447.038,226.671,443.648,227.002,439.796z" fill="#EF5362"/></g></g></g><g><g><g><path d="M252.647,453.987c-0.428,0-0.86-0.018-1.294-0.056l-18.404-1.581       c-6.592-0.566-11.495-6.39-10.929-12.982l0,0l1.608-18.717c0.342-3.981,2.221-7.597,5.292-10.183       c3.071-2.586,6.957-3.825,10.936-3.479l18.404,1.581c3.193,0.274,6.089,1.775,8.154,4.228c2.064,2.452,3.05,5.562,2.775,8.755       l-1.608,18.717C266.911,448.076,260.343,453.987,252.647,453.987z M231.983,440.224c-0.094,1.099,0.723,2.069,1.822,2.164       l18.403,1.581c2.755,0.238,5.174-1.807,5.41-4.554l1.608-18.717c0.062-0.718-0.264-1.223-0.463-1.459       c-0.199-0.236-0.641-0.643-1.359-0.705L239,416.952c-1.319-0.112-2.612,0.301-3.64,1.166c-1.028,0.865-1.656,2.068-1.77,3.388       L231.983,440.224z" fill="#3F456B"/></g></g></g></g><g><g><g><g><path d="M296.805,218.88l4.415-18.26c1.293-5.346,6.724-8.662,12.07-7.37l17.954,4.341       c3.758,0.909,6.067,4.691,5.159,8.449l-4.415,18.26c-1.293,5.346-6.724,8.662-12.07,7.37l-17.954-4.341       C298.207,226.421,295.897,222.638,296.805,218.88z" fill="#EF5362"/></g></g></g><g><g><g><path d="M322.268,236.952c-1.164,0-2.345-0.137-3.524-0.422l-17.955-4.341c-3.115-0.753-5.751-2.675-7.421-5.41       c-1.67-2.736-2.175-5.958-1.422-9.074l4.415-18.26c0.939-3.883,3.343-7.174,6.769-9.266c3.426-2.092,7.452-2.727,11.335-1.788       l17.954,4.341c6.431,1.555,10.399,8.052,8.844,14.484l-4.415,18.261C335.19,232.335,329.033,236.952,322.268,236.952z        M310.951,197.971c-0.908,0-1.806,0.252-2.609,0.742c-1.146,0.7-1.949,1.794-2.261,3.082l-4.415,18.261l0,0       c-0.169,0.7,0.076,1.248,0.237,1.512c0.162,0.264,0.537,0.732,1.237,0.902l17.954,4.341c2.677,0.647,5.387-1.005,6.035-3.685       l4.415-18.26c0.259-1.071-0.402-2.155-1.475-2.414l-17.954-4.341C311.73,198.017,311.339,197.971,310.951,197.971z        M296.806,218.88h0.01H296.806z" fill="#3F456B"/></g></g></g></g><g><g opacity="0.2"><g><g><path d="M428.141,214.576c-4.018,61.482-41.594,97.619-90.266,83.128l-0.002-0.01       c-20.468-1.11-24.836,1.431-44.424,8.573c-26.652,9.709-37.826-30.688-10.728-38.447c27.087-7.767,59.512,11.122,59.512,11.122       s33.676,6.66,34.133-36.296c0.343-32.982-55.786-39.203-55.786-39.203s-61.338-3.64-81.008-39.868       c-12.959-23.865-5.454-48.329-5.454-48.329l124.542,25.859C358.66,141.106,432.159,153.094,428.141,214.576z" fill="#3F456B"/></g></g></g><g><g><g><path d="M228.784,90.823l124.548,25.861c0,0,73.494,11.981,69.475,73.463s-41.595,97.622-90.261,83.126       l4.359-18.757c0,0,33.675,6.658,34.126-36.298c0.346-32.977-55.787-39.198-55.787-39.198s-61.332-3.638-81.005-39.871       C221.28,115.285,228.784,90.823,228.784,90.823z" fill="#FC9359"/></g></g></g><g><g><g><path d="M336.905,254.516c0,0-32.426-18.883-59.519-11.124c-27.093,7.76-15.918,48.161,10.732,38.449       c19.588-7.139,23.958-9.682,44.428-8.568" fill="#FC9359"/></g></g></g><g opacity="0.3"><g><g><path d="M226.804,113.164c0,0,5.594,38.268,71.067,52.86c0,0,68.041,3.827,81.937,37.801       s-21.418,51.131-30.445,50.147c0,0,22.201-4.693,21.652-36.955c-0.549-32.262-55.772-37.996-55.772-37.996       S236.393,177.146,226.804,113.164z" fill="#3F456B"/></g></g></g><g opacity="0.3"><g><g><path d="M333.848,267.021c0,0-22.253-7.016-43.887,2.36c0,0-22.038,9.641-27.326-4.925       c0,0-1.545,23.456,22.438,18.459c23.983-4.997,30.782-12.027,46.502-9.352L333.848,267.021z" fill="#3F456B"/></g></g></g><g opacity="0.3"><g><g><path d="M226.229,101.86L334.78,124.4c0,0,90.102,10.903,86.557,77.019c0,0,13.585-61.776-56.714-82.359       l-133.16-27.649L226.229,101.86z" fill="#FFFFFF"/></g></g></g><g opacity="0.3"><g><g><path d="M334.678,263.025c0,0-27.107-14.406-49.254-10.227c-22.148,4.179-23.922,17.116-23.922,17.116       s-6.036-17.835,17.829-24.235c23.865-6.4,55.795,11.585,55.795,11.585L334.678,263.025z" fill="#FFFFFF"/></g></g></g><g><g><g><path d="M280.209,288.314c-5.562,0-10.718-1.87-14.867-5.518c-6.91-6.076-10.02-16.03-7.922-25.36       c2.065-9.188,8.841-16.059,18.59-18.852c28.813-8.253,62.013,10.794,63.412,11.61c2.386,1.39,3.194,4.451,1.805,6.837       c-1.39,2.385-4.449,3.192-6.835,1.806c-0.417-0.241-30.994-17.692-55.627-10.639c-6.215,1.78-10.33,5.84-11.587,11.432       c-1.287,5.725,0.629,12.017,4.769,15.657c3.749,3.296,8.748,3.937,14.461,1.856c1.885-0.687,3.628-1.332,5.259-1.934       c15.738-5.816,21.633-7.99,41.153-6.929c2.757,0.15,4.871,2.507,4.721,5.264c-0.15,2.757-2.521,4.867-5.264,4.721       c-17.459-0.951-22.023,0.736-37.144,6.324c-1.644,0.607-3.401,1.257-5.301,1.949       C286.566,287.728,283.324,288.314,280.209,288.314z" fill="#3F456B"/></g></g></g><g><g><g><path d="M312.576,183.468c-0.773,0-1.557-0.18-2.291-0.559c-2.453-1.268-3.415-4.284-2.147-6.737       c20.515-39.711,13.711-63.359,13.641-63.594c-0.802-2.642,0.689-5.435,3.332-6.237c2.638-0.801,5.434,0.688,6.237,3.332       c0.339,1.115,8.035,27.808-14.324,71.089C316.133,182.481,314.386,183.468,312.576,183.468z" fill="#3F456B"/></g></g></g><g opacity="0.3"><g><g><g><path d="M403.418,255.006c-0.079,0-0.158-0.002-0.237-0.005c-21.744-1.016-37.367-13.43-38.022-13.958        c-2.149-1.734-2.486-4.882-0.752-7.031c1.732-2.147,4.876-2.485,7.023-0.758c0.206,0.163,13.885,10.901,32.217,11.758        c2.758,0.129,4.89,2.47,4.761,5.228C408.284,252.918,406.072,255.006,403.418,255.006z" fill="#FFFFFF"/></g></g></g><g><g><g><path d="M387.243,223.449c-9.648,0-16.396-1.36-16.943-1.474c-2.704-0.563-4.439-3.211-3.876-5.914        c0.562-2.703,3.206-4.438,5.911-3.876c0.392,0.079,24.114,4.748,45.382-4.643c2.525-1.116,5.479,0.029,6.593,2.554        c1.116,2.526-0.028,5.478-2.554,6.593C409.557,222.076,396.936,223.449,387.243,223.449z" fill="#FFFFFF"/></g></g></g><g><g><g><path d="M361.194,201.981c-2.667,0-4.882-2.106-4.992-4.795c-0.113-2.755,2.025-5.08,4.778-5.2        c0.339-0.016,31.865-1.828,53.864-32.01c1.626-2.231,4.755-2.722,6.986-1.095c2.231,1.626,2.722,4.754,1.095,6.986        c-24.952,34.232-60.042,36.05-61.523,36.11C361.332,201.979,361.263,201.981,361.194,201.981z" fill="#FFFFFF"/></g></g></g><g><g><g><path d="M345.789,192.324c-1.397,0-2.787-0.583-3.775-1.72c-1.812-2.084-1.591-5.242,0.493-7.054        c25.894-22.509,28.886-59.807,28.913-60.181c0.2-2.754,2.615-4.813,5.349-4.625c2.754,0.2,4.825,2.595,4.625,5.349        c-0.123,1.696-3.352,41.817-32.326,67.003C348.121,191.92,346.952,192.324,345.789,192.324z" fill="#FFFFFF"/></g></g></g></g><g><g><g><path d="M353.518,281.484c-7.236,0-14.734-1.135-22.399-3.418c-2.533-0.754-4.041-3.35-3.443-5.924       l4.359-18.757c0.61-2.627,3.193-4.294,5.84-3.773c0.083,0.016,10.703,1.915,18.605-4.574       c6.204-5.094,9.417-14.135,9.551-26.871c0.119-11.375-8.115-20.529-24.472-27.21c-12.572-5.134-25.46-6.795-26.762-6.954       c-4.251-0.272-64.494-4.788-84.952-42.467c-13.801-25.417-6.171-51.098-5.84-52.178c0.757-2.469,3.27-3.953,5.797-3.429       l124.452,25.84c1.779,0.302,19.957,3.583,37.889,14.3c25.099,15,37.428,37.271,35.654,64.405       c-2.358,36.071-15.707,64.323-37.586,79.55C379.271,277.636,366.84,281.483,353.518,281.484z M338.513,269.686       c17.034,3.958,32.85,1.271,45.985-7.871c19.05-13.258,31.195-39.499,33.319-71.994c1.535-23.474-8.83-42.036-30.806-55.169       c-16.857-10.075-34.31-13.004-34.484-13.033c-0.071-0.012-0.142-0.025-0.212-0.04L232.602,96.723       c-1.315,7.677-2.609,24.129,6.03,40.041c18.138,33.405,76.322,37.23,76.907,37.265c0.085,0.005,0.17,0.012,0.255,0.021       c2.476,0.274,60.624,7.146,60.235,44.22c-0.167,15.902-4.647,27.539-13.317,34.586c-7.628,6.202-16.541,7.144-21.92,7.018       L338.513,269.686z" fill="#3F456B"/></g></g></g><g><g><g><g><path d="M292.988,136.495c-3.501-0.727-5.749-4.152-5.022-7.653c0.727-3.5,4.153-5.748,7.653-5.021        c3.5,0.727,5.748,4.153,5.022,7.653C299.915,134.975,296.488,137.222,292.988,136.495z" fill="#3F456B"/></g></g></g></g></g><g><g opacity="0.2"><g><g><path d="M292.807,433.712c-10.612-11.918-7.062-44.317,37.922-88.869s73.419-10.269,73.419-10.269l3.789,4.256       c0,0,30.767,32.207-18.685,71.74s-82.044,39.316-92.656,27.398L292.807,433.712z" fill="#3F456B"/></g></g></g><g><g><g><path d="M280.683,416.305c-10.612-11.918-7.062-44.317,37.922-88.869s73.419-10.269,73.419-10.269l3.789,4.256       c0,0,30.767,32.207-18.685,71.74s-82.044,39.315-92.656,27.398L280.683,416.305z" fill="#8F97B5"/></g></g></g><g opacity="0.2"><g><g><path d="M328.399,320.439c0,0,32.695-20.402,57.609,7.578c22.319,25.066-2.739,56.784-2.739,56.784       s41.934-30.371,10.359-65.833S328.399,320.439,328.399,320.439" fill="#FFFFFF"/></g></g></g><g opacity="0.2"><g><g><path d="M308.081,344.285c0,0-30.233,44.686-12.585,64.506c17.648,19.82,65.009-5.629,65.009-5.629       s-51.091,40.041-74.132,14.163C263.331,391.446,308.081,344.285,308.081,344.285z" fill="#FFFFFF"/></g></g></g><g opacity="0.4"><g><g><path d="M375.711,376.9c-21.409,19.063-50.979,34.917-64.196,17.415c-13.543-17.933,1.782-44.404,23.191-63.467       c21.409-19.063,47.944-24.208,59.268-11.491C405.297,332.075,397.121,357.837,375.711,376.9z" fill="#3F456B"/></g></g></g><g><g><g><path d="M303.864,432.65c-10.355,0-18.2-3.231-23.126-8.765l-3.789-4.255h0       c-13.654-15.335-7.157-50.888,38.138-95.747c17.063-16.899,34.019-25.07,50.408-24.259       c18.444,0.902,29.237,13.012,30.305,14.265l3.707,4.163c1.119,1.205,11.902,13.325,10.667,31.751       c-1.097,16.368-11.165,32.271-29.922,47.266C348.424,422.512,322.207,432.65,303.864,432.65z M284.417,412.98l3.789,4.255       c8.491,9.537,38.348,9.957,85.8-27.978c16.405-13.115,25.212-26.558,26.177-39.956c1.051-14.594-7.912-24.347-8.002-24.443       c-0.028-0.03-0.074-0.08-0.102-0.111l-3.79-4.256c-0.039-0.044-0.077-0.088-0.114-0.133       c-0.07-0.083-8.722-10.112-23.339-10.755c-13.417-0.583-27.79,6.605-42.713,21.385       C278.959,373.738,275.925,403.443,284.417,412.98L284.417,412.98z" fill="#3F456B"/></g></g></g></g><g><g><g><g><ellipse cx="357.823" cy="353.09" fill="#FFBB78" rx="47.607" ry="29.199" transform="matrix(0.7602 -0.6497 0.6497 0.7602 -143.5933 317.1549)"/></g></g></g><g opacity="0.2"><g><g><path d="M338.16,333.99c0,0-21.31,24.893-6.876,41.782s41.931-0.766,41.931-0.766s-33.848,29.764-51.582,9.014       C303.899,363.271,338.16,333.99,338.16,333.99z" fill="#3F456B"/></g></g></g><g opacity="0.3"><g><g><ellipse cx="368.681" cy="343.811" fill="#FFFFFF" rx="32.69" ry="17.486" transform="matrix(0.7602 -0.6497 0.6497 0.7602 -134.9609 321.9836)"/></g></g></g><g><g><g><path d="M339.375,396.172c-9.05,0-16.55-3.061-21.543-8.903c-12.459-14.578-4.653-41.011,17.772-60.177       c22.426-19.166,49.752-22.759,62.211-8.182c12.459,14.578,4.653,41.011-17.772,60.177       c-10.359,8.854-22.296,14.716-33.614,16.508C343.992,395.981,341.635,396.172,339.375,396.172z M376.263,320.005       c-10.139,0-23.047,5.19-34.162,14.689c-17.557,15.005-25.189,36.106-16.667,46.078c3.896,4.557,10.796,6.314,19.432,4.946       c9.52-1.507,19.706-6.562,28.681-14.232l0,0c17.557-15.005,25.189-36.106,16.667-46.078       C387.086,321.749,382.14,320.005,376.263,320.005z" fill="#3F456B"/></g></g></g></g><g><g><g><g><circle cx="212" cy="171" fill="#58BA9E" r="15"/></g></g></g><g><g><g><path d="M212,191c-11.028,0-20-8.972-20-20s8.972-20,20-20s20,8.972,20,20S223.028,191,212,191z M212,161       c-5.514,0-10,4.486-10,10s4.486,10,10,10s10-4.486,10-10S217.514,161,212,161z" fill="#3F456B"/></g></g></g></g><g><g><g><g><circle cx="226" cy="286" fill="#58BA9E" r="15"/></g></g></g><g><g><g><path d="M226,306c-11.028,0-20-8.972-20-20s8.972-20,20-20s20,8.972,20,20S237.028,306,226,306z M226,276       c-5.514,0-10,4.486-10,10s4.486,10,10,10s10-4.486,10-10S231.514,276,226,276z" fill="#3F456B"/></g></g></g></g><g><g><g><g><circle cx="133" cy="385" fill="#58BA9E" r="15"/></g></g></g><g><g><g><path d="M133,405c-11.028,0-20-8.972-20-20s8.972-20,20-20s20,8.972,20,20S144.028,405,133,405z M133,375       c-5.514,0-10,4.486-10,10s4.486,10,10,10s10-4.486,10-10S138.514,375,133,375z" fill="#3F456B"/></g></g></g></g><g><g><g><g><circle cx="424" cy="314" fill="#58BA9E" r="15"/></g></g></g><g><g><g><path d="M424,334c-11.028,0-20-8.972-20-20s8.972-20,20-20s20,8.972,20,20S435.028,334,424,334z M424,304       c-5.514,0-10,4.486-10,10s4.486,10,10,10s10-4.486,10-10S429.514,304,424,304z" fill="#3F456B"/></g></g></g></g><g><g><g><g><circle cx="308" cy="92" fill="#58BA9E" r="15"/></g></g></g><g><g><g><path d="M308,112c-11.028,0-20-8.972-20-20s8.972-20,20-20s20,8.972,20,20S319.028,112,308,112z M308,82       c-5.514,0-10,4.486-10,10s4.486,10,10,10s10-4.486,10-10S313.514,82,308,82z" fill="#3F456B"/></g></g></g></g><g><g><g><g><circle cx="114" cy="156" fill="#58BA9E" r="15"/></g></g></g><g><g><g><path d="M114,176c-11.028,0-20-8.972-20-20s8.972-20,20-20s20,8.972,20,20S125.028,176,114,176z M114,146       c-5.514,0-10,4.486-10,10s4.486,10,10,10s10-4.486,10-10S119.514,146,114,146z" fill="#3F456B"/></g></g></g></g></g></svg>